<svg width="34" height="30" viewBox="0 0 34 30" fill="none" xmlns="http://www.w3.org/2000/svg">
<g filter="url(#filter0_d_444_342)">
<path d="M6.93216 6.61379C6.88487 5.25392 7.94423 4 9.37634 4H24.0506C25.4827 4 26.5421 5.25392 26.4948 6.61379C26.4493 7.91998 26.5083 9.61209 26.9342 10.9917C27.3614 12.3757 28.0817 13.2503 29.2616 13.3629V14.6373C28.0817 14.7499 27.3614 15.6245 26.9342 17.0085C26.5083 18.3881 26.4493 20.0802 26.4948 21.3864C26.5421 22.7463 25.4827 24 24.0506 24H9.37634C7.94423 24 6.88487 22.7461 6.93216 21.3864C6.97766 20.0802 6.91859 18.3881 6.49257 17.0085C6.06555 15.6247 5.34322 14.7499 4.16333 14.6373V13.3629C5.34322 13.2505 6.06555 12.3757 6.49257 10.9917C6.91859 9.61209 6.97746 7.91998 6.93216 6.61379Z" fill="url(#paint0_linear_444_342)"/>
<path d="M17.3332 19.3891C19.6517 19.3891 21.0488 18.254 21.0488 16.3816C21.0488 14.9662 20.0519 13.9416 18.5717 13.7794V13.7204C19.6592 13.5435 20.5126 12.5336 20.5126 11.4058C20.5126 9.79877 19.2439 8.75196 17.3105 8.75196H12.9606V19.3891H17.3332ZM14.6522 10.101H16.9028C18.1262 10.101 18.8209 10.6465 18.8209 11.6342C18.8209 12.6884 18.0129 13.2781 16.5478 13.2781H14.6522V10.101ZM14.6522 18.0401V14.5386H16.8876C18.4886 14.5386 19.3194 15.1283 19.3194 16.2783C19.3194 17.4283 18.5113 18.0401 16.9858 18.0401H14.6522Z" fill="url(#paint1_linear_444_342)"/>
<path d="M6.93216 6.61379C6.88487 5.25392 7.94423 4 9.37634 4H24.0506C25.4827 4 26.5421 5.25392 26.4948 6.61379C26.4493 7.91998 26.5083 9.61209 26.9342 10.9917C27.3614 12.3757 28.0817 13.2503 29.2616 13.3629V14.6373C28.0817 14.7499 27.3614 15.6245 26.9342 17.0085C26.5083 18.3881 26.4493 20.0802 26.4948 21.3864C26.5421 22.7463 25.4827 24 24.0506 24H9.37634C7.94423 24 6.88487 22.7461 6.93216 21.3864C6.97766 20.0802 6.91859 18.3881 6.49257 17.0085C6.06555 15.6247 5.34322 14.7499 4.16333 14.6373V13.3629C5.34322 13.2505 6.06555 12.3757 6.49257 10.9917C6.91859 9.61209 6.97746 7.91998 6.93216 6.61379Z" stroke="white" stroke-width="0.24566"/>
<path d="M17.3332 19.3891C19.6517 19.3891 21.0488 18.254 21.0488 16.3816C21.0488 14.9662 20.0519 13.9416 18.5717 13.7794V13.7204C19.6592 13.5435 20.5126 12.5336 20.5126 11.4058C20.5126 9.79877 19.2439 8.75196 17.3105 8.75196H12.9606V19.3891H17.3332ZM14.6522 10.101H16.9028C18.1262 10.101 18.8209 10.6465 18.8209 11.6342C18.8209 12.6884 18.0129 13.2781 16.5478 13.2781H14.6522V10.101ZM14.6522 18.0401V14.5386H16.8876C18.4886 14.5386 19.3194 15.1283 19.3194 16.2783C19.3194 17.4283 18.5113 18.0401 16.9858 18.0401H14.6522Z" stroke="white" stroke-width="0.24566"/>
</g>
<defs>
<filter id="filter0_d_444_342" x="0.109967" y="0.929033" width="33.2051" height="28.1072" filterUnits="userSpaceOnUse" color-interpolation-filters="sRGB">
<feFlood flood-opacity="0" result="BackgroundImageFix"/>
<feColorMatrix in="SourceAlpha" type="matrix" values="0 0 0 0 0 0 0 0 0 0 0 0 0 0 0 0 0 0 127 0" result="hardAlpha"/>
<feOffset dy="0.98264"/>
<feGaussianBlur stdDeviation="1.96528"/>
<feColorMatrix type="matrix" values="0 0 0 0 0 0 0 0 0 0 0 0 0 0 0 0 0 0 0.15 0"/>
<feBlend mode="normal" in2="BackgroundImageFix" result="effect1_dropShadow_444_342"/>
<feBlend mode="normal" in="SourceGraphic" in2="effect1_dropShadow_444_342" result="shape"/>
</filter>
<linearGradient id="paint0_linear_444_342" x1="7.89287" y1="4.52931" x2="29.8241" y2="21.9386" gradientUnits="userSpaceOnUse">
<stop stop-color="#9013FE"/>
<stop offset="1" stop-color="#6610F2"/>
</linearGradient>
<linearGradient id="paint1_linear_444_342" x1="13.7259" y1="9.45196" x2="18.6278" y2="17.7426" gradientUnits="userSpaceOnUse">
<stop stop-color="white"/>
<stop offset="1" stop-color="#F1E5FC"/>
</linearGradient>
</defs>
</svg>
