<svg width="18" height="20" viewBox="0 0 18 20" fill="none" xmlns="http://www.w3.org/2000/svg">
<path d="M17.4437 4.61165L9.62815 0.113269C9.4987 0.0323625 9.32071 0 9.12654 0C8.93236 0 8.75437 0.0485437 8.62492 0.113269L0.857927 4.62783C0.582847 4.78964 0.388672 5.19418 0.388672 5.50162V14.5146C0.388672 14.6926 0.421034 14.9029 0.550484 15.0809L17.832 5.04854C17.7349 4.85437 17.5893 4.70874 17.4437 4.61165Z" fill="#659AD3"/>
<path d="M0.50194 15.0647C0.582847 15.1942 0.696115 15.3074 0.809384 15.3722L8.60874 19.8867C8.73819 19.9676 8.91618 20 9.11035 20C9.30453 20 9.48252 19.9515 9.61197 19.8867L17.379 15.3722C17.654 15.2104 17.8482 14.8058 17.8482 14.4984V5.48544C17.8482 5.33981 17.832 5.17799 17.7511 5.03236L0.50194 15.0647Z" fill="#03599C"/>
<path d="M12.5731 11.9579C11.8935 13.1553 10.599 13.9644 9.12654 13.9644C6.94207 13.9644 5.16213 12.1845 5.16213 10C5.16213 7.81553 6.94207 6.0356 9.12654 6.0356C10.599 6.0356 11.8935 6.84466 12.5731 8.05825L14.6767 6.84466C13.5764 4.91909 11.5052 3.60841 9.12654 3.60841C5.59903 3.60841 2.73495 6.47249 2.73495 10C2.73495 13.5275 5.59903 16.3916 9.12654 16.3916C11.489 16.3916 13.5602 15.0971 14.6605 13.1877L12.5731 11.9579Z" fill="white"/>
</svg>
