<svg width="201" height="201" viewBox="0 0 201 201" fill="none" xmlns="http://www.w3.org/2000/svg">
<path fill-rule="evenodd" clip-rule="evenodd" d="M101.126 21.9981L116.216 30.6988C117.005 31.1538 117.277 32.1674 116.821 32.9554L103.164 56.5798C102.557 57.6303 101.514 58.2316 100.299 58.2316C99.0844 58.2316 98.0414 57.6303 97.4341 56.5797L83.7767 32.9551C83.3212 32.1672 83.5931 31.1537 84.3821 30.6987L99.4719 21.9981C99.9978 21.6948 100.6 21.6948 101.126 21.9981ZM58.5184 27.4126L93.1369 87.2957C94.6553 89.9221 97.2624 91.4255 100.299 91.4255C103.336 91.4255 105.943 89.9222 107.461 87.2957L142.085 27.4039C142.996 25.8281 142.452 23.8007 140.874 22.891L101.963 0.454941C100.911 -0.151647 99.7068 -0.151647 98.6547 0.454941L59.7292 22.8994C58.1513 23.8093 57.6073 25.8367 58.5184 27.4126Z" fill="#FDFAF3"/>
<path fill-rule="evenodd" clip-rule="evenodd" d="M99.477 179.002L84.387 170.301C83.5981 169.846 83.3261 168.833 83.7816 168.045L97.439 144.42C98.0464 143.37 99.0893 142.768 100.304 142.768C101.519 142.768 102.562 143.37 103.169 144.42L116.826 168.045C117.282 168.833 117.01 169.846 116.221 170.301L101.131 179.002C100.605 179.305 100.003 179.305 99.477 179.002ZM142.085 173.587L107.466 113.704C105.948 111.078 103.341 109.574 100.304 109.574C97.2672 109.574 94.6601 111.078 93.1417 113.704L58.5182 173.596C57.6074 175.172 58.1512 177.199 59.7291 178.109L98.6401 200.545C99.6921 201.152 100.896 201.152 101.948 200.545L140.874 178.101C142.452 177.191 142.996 175.163 142.085 173.587Z" fill="#FDFAF3"/>
<path fill-rule="evenodd" clip-rule="evenodd" d="M21.9981 99.477L30.6988 84.387C31.1538 83.5981 32.1674 83.3261 32.9554 83.7816L56.5798 97.439C57.6303 98.0464 58.2316 99.0893 58.2316 100.304C58.2316 101.519 57.6303 102.562 56.5798 103.169L32.9551 116.826C32.1672 117.282 31.1537 117.01 30.6987 116.221L21.9981 101.131C21.6948 100.605 21.6948 100.003 21.9981 99.477ZM27.4126 142.085L87.2957 107.466C89.9221 105.948 91.4255 103.341 91.4255 100.304C91.4255 97.2672 89.9222 94.6601 87.2957 93.1417L27.4039 58.5182C25.8281 57.6074 23.8007 58.1512 22.891 59.7291L0.454941 98.6401C-0.151647 99.6921 -0.151647 100.896 0.454941 101.948L22.8994 140.874C23.8093 142.452 25.8367 142.996 27.4126 142.085Z" fill="#FDFAF3"/>
<path fill-rule="evenodd" clip-rule="evenodd" d="M179.002 101.126L170.301 116.216C169.846 117.005 168.833 117.277 168.045 116.821L144.42 103.164C143.37 102.557 142.768 101.514 142.768 100.299C142.768 99.0844 143.37 98.0415 144.42 97.4341L168.045 83.7767C168.833 83.3212 169.846 83.5931 170.301 84.3821L179.002 99.4719C179.305 99.9978 179.305 100.6 179.002 101.126ZM173.587 58.5184L113.704 93.1369C111.078 94.6554 109.574 97.2624 109.574 100.299C109.574 103.336 111.078 105.943 113.704 107.461L173.596 142.085C175.172 142.996 177.199 142.452 178.109 140.874L200.545 101.963C201.152 100.911 201.152 99.7068 200.545 98.6548L178.101 59.7292C177.191 58.1513 175.163 57.6073 173.587 58.5184Z" fill="#FDFAF3"/>
</svg>
