<svg width="58" height="54" viewBox="0 0 58 54" fill="#fdfaf3" xmlns="http://www.w3.org/2000/svg">
<path d="M37.6347 4.3113C37.9247 3.36871 37.3957 2.36947 36.4531 2.07944C35.5105 1.78941 34.5113 2.31842 34.2213 3.26101L19.9358 49.6887C19.6458 50.6313 20.1748 51.6305 21.1174 51.9206C22.06 52.2106 23.0592 51.6816 23.3492 50.739L37.6347 4.3113Z" />
<path d="M17.5481 13.2375C18.2455 13.9349 18.2455 15.0655 17.5481 15.7629L6.31101 27L17.5481 38.2371C18.2455 38.9344 18.2455 40.065 17.5481 40.7624C16.8508 41.4597 15.7201 41.4597 15.0228 40.7624L2.52301 28.2626C1.82566 27.5653 1.82566 26.4346 2.52301 25.7373L15.0228 13.2375C15.7201 12.5402 16.8508 12.5402 17.5481 13.2375Z" />
<path d="M40.0223 13.2375C39.325 13.9349 39.325 15.0655 40.0223 15.7629L51.2594 27L40.0223 38.2371C39.325 38.9344 39.325 40.065 40.0223 40.7624C40.7197 41.4597 41.8503 41.4597 42.5476 40.7624L55.0474 28.2626C55.7448 27.5653 55.7448 26.4346 55.0474 25.7373L42.5476 13.2375C41.8503 12.5402 40.7197 12.5402 40.0223 13.2375Z" />
<path d="M37.6347 4.3113C37.9247 3.36871 37.3957 2.36947 36.4531 2.07944C35.5105 1.78941 34.5113 2.31842 34.2213 3.26101L19.9358 49.6887C19.6458 50.6313 20.1748 51.6305 21.1174 51.9206C22.06 52.2106 23.0592 51.6816 23.3492 50.739L37.6347 4.3113Z" stroke="#fdfaf3" stroke-width="3" stroke-linecap="round" stroke-linejoin="round"/>
<path d="M17.5481 13.2375C18.2455 13.9349 18.2455 15.0655 17.5481 15.7629L6.31101 27L17.5481 38.2371C18.2455 38.9344 18.2455 40.065 17.5481 40.7624C16.8508 41.4597 15.7201 41.4597 15.0228 40.7624L2.52301 28.2626C1.82566 27.5653 1.82566 26.4346 2.52301 25.7373L15.0228 13.2375C15.7201 12.5402 16.8508 12.5402 17.5481 13.2375Z" stroke="#fdfaf3" stroke-width="3" stroke-linecap="round" stroke-linejoin="round"/>
<path d="M40.0223 13.2375C39.325 13.9349 39.325 15.0655 40.0223 15.7629L51.2594 27L40.0223 38.2371C39.325 38.9344 39.325 40.065 40.0223 40.7624C40.7197 41.4597 41.8503 41.4597 42.5476 40.7624L55.0474 28.2626C55.7448 27.5653 55.7448 26.4346 55.0474 25.7373L42.5476 13.2375C41.8503 12.5402 40.7197 12.5402 40.0223 13.2375Z" stroke="#fdfaf3" stroke-width="3" stroke-linecap="round" stroke-linejoin="round"/>
</svg>
