<svg width="19" height="20" viewBox="0 0 19 20" fill="none" xmlns="http://www.w3.org/2000/svg">
<path d="M17.8189 4.61165L10.0034 0.113269C9.87395 0.0323625 9.69595 0 9.50178 0C9.3076 0 9.12961 0.0485437 9.00016 0.113269L1.23317 4.62783C0.958091 4.78964 0.763916 5.19418 0.763916 5.50162V14.5146C0.763916 14.6926 0.796278 14.9029 0.925728 15.0809L18.2073 5.04854C18.1102 4.85437 17.9646 4.70874 17.8189 4.61165Z" fill="#D26383"/>
<path d="M0.877185 15.0647C0.958091 15.1942 1.07136 15.3074 1.18463 15.3722L8.98398 19.8867C9.11343 19.9676 9.29142 20 9.4856 20C9.67977 20 9.85777 19.9515 9.98722 19.8867L17.7542 15.3722C18.0293 15.2104 18.2235 14.8058 18.2235 14.4984V5.48544C18.2235 5.33981 18.2073 5.17799 18.1264 5.03236L0.877185 15.0647Z" fill="#9C033A"/>
<path d="M12.9484 11.9579C12.2688 13.1553 10.9743 13.9644 9.50178 13.9644C7.31731 13.9644 5.53738 12.1845 5.53738 10C5.53738 7.81553 7.31731 6.0356 9.50178 6.0356C10.9743 6.0356 12.2688 6.84466 12.9484 8.05825L15.0519 6.84466C13.9516 4.91909 11.8804 3.60841 9.50178 3.60841C5.97427 3.60841 3.11019 6.47249 3.11019 10C3.11019 13.5275 5.97427 16.3916 9.50178 16.3916C11.8642 16.3916 13.9354 15.0971 15.0358 13.1877L12.9484 11.9579Z" fill="white"/>
<path d="M12.4306 9.64401H13.272V8.78641H13.984V9.64401H14.8416V10.356H13.984V11.1974H13.272V10.356H12.4306V9.64401ZM15.4241 9.64401H16.2655V8.78641H16.9775V9.64401H17.8351V10.356H16.9775V11.1974H16.2655V10.356H15.4241V9.64401Z" fill="white"/>
</svg>
