<svg width="19" height="20" viewBox="0 0 19 20" fill="none" xmlns="http://www.w3.org/2000/svg">
<path d="M2.39169 18.0006L0.786865 0H18.4218L16.8153 17.9979L9.59362 20L2.39169 18.0006Z" fill="#1572B6"/>
<path d="M9.60451 18.4698L15.4401 16.8519L16.813 1.47182H9.60451V18.4698Z" fill="#33A9DC"/>
<path d="M9.60451 7.99333H12.5259L12.7276 5.73262H9.60451V3.52491H15.1405L14.5448 10.201H9.60451V7.99333Z" fill="white"/>
<path d="M9.61759 13.7269L9.60786 13.7298L7.14922 13.0659L6.99199 11.3052H4.77614L5.08532 14.7717L9.60754 16.0268L9.61759 16.0239V13.7269Z" fill="#EBEBEB"/>
<path d="M12.3382 10.1077L12.0722 13.0642L9.60994 13.7289V16.0258L14.1358 14.7715L14.5531 10.1077H12.3382Z" fill="white"/>
<path d="M9.61199 3.52491V5.73262H4.27938L4.08177 3.52491H9.61199ZM9.60449 7.99365V10.2014H7.17682L7.03188 8.586L6.97921 7.99365H9.60449Z" fill="#EBEBEB"/>
</svg>
