<svg width="20" height="20" viewBox="0 0 20 20" fill="none" xmlns="http://www.w3.org/2000/svg">
<path d="M4.11152 4.14651V13.4895L4.12717 13.9277C4.12717 14.1312 4.15847 14.3659 4.23672 14.6007L14.5031 18.2158L17.054 17.089L4.11152 4.14651Z" fill="#00C4B3"/>
<path d="M17.054 17.089L14.5031 18.2158L4.26802 14.6008C4.47147 15.352 4.89402 16.1814 5.36352 16.6666L8.69695 19.9843L16.1463 20L17.054 17.089Z" fill="#22D3C5"/>
<path d="M0.16776 10.1718C-0.160888 10.5161 0.011261 11.2516 0.527708 11.7994L2.82825 14.1156L4.26804 14.632C4.22109 14.3973 4.15849 14.1625 4.15849 13.9591L4.14284 13.5209L4.11154 4.16222M17.054 17.089L18.1808 14.5225L14.5813 4.25612C14.3466 4.20917 14.1118 4.16222 13.9084 4.14657L13.4545 4.13092L4.12719 4.14657" fill="#0075C9"/>
<path d="M17.054 17.089L19.8241 16.1814V8.55985L16.6315 5.35162C16.162 4.88212 15.3325 4.44392 14.5657 4.25612L18.1808 14.5225" fill="#00A8E1"/>
<path d="M14.0649 2.83198L11.7487 0.531444C11.2166 -0.000653003 10.4967 -0.157152 10.1211 0.171496L4.11152 4.14651L13.4232 4.14657L13.8771 4.16222C14.0805 4.16222 14.3153 4.19352 14.55 4.27177L14.0649 2.83198Z" fill="#00C4B3"/>
</svg>
