<svg width="32" height="20" viewBox="0 0 32 20" fill="none" xmlns="http://www.w3.org/2000/svg">
<path d="M30.6816 6.99005C29.612 6.36816 28.1941 6.29353 27.0001 6.64179C26.8508 5.34826 26.005 4.22886 25.01 3.43284L24.612 3.10945L24.2637 3.50746C23.5921 4.27861 23.3931 5.57214 23.4926 6.56716C23.5672 7.28856 23.7911 8.03483 24.2389 8.63184C23.8906 8.83085 23.5175 9.10448 23.1692 9.22886C22.4727 9.47761 21.7015 9.72637 20.9553 9.72637H19.2886V6.21891H16.0548V0H12.3234V2.98507H6.10453V6.21891H2.8707V9.70149H0.084633L0.0348818 10.0746C-0.0894963 11.6667 0.109509 13.209 0.78115 14.6766L1.07966 15.2736C3.04483 18.607 6.47767 20 10.2339 20C17.4976 20 23.4926 16.7413 26.2289 9.9005C28.0697 10 29.9603 9.45274 30.8558 7.68657L31.0797 7.23881L30.6816 6.99005ZM6.60205 3.73134H9.08961V6.46766H6.60205V3.73134ZM9.86075 14.7264C9.86075 15.1493 9.51249 15.4975 9.08961 15.4975C8.66672 15.4975 8.31846 15.1493 8.31846 14.7264C8.31846 14.3035 8.66672 13.9552 9.08961 13.9552C9.51249 13.9801 9.86075 14.3035 9.86075 14.7264ZM6.60205 6.96517H9.08961V9.70149H6.60205V6.96517ZM3.36822 6.96517H6.10453V9.70149H3.36822V6.96517ZM10.2588 19.4527C6.32841 19.4279 4.21399 18.1095 2.47269 16.3682C2.99508 16.393 3.49259 16.4179 3.94035 16.4179C4.33836 16.4179 4.73637 16.4179 5.10951 16.393C6.07966 16.3433 6.92543 16.2189 7.62195 16.0199C8.19409 17.3383 9.23886 18.5572 11.1045 19.4527H10.2588ZM12.3234 9.70149H9.58712V6.96517H12.3234V9.70149ZM12.3234 6.46766H9.58712V3.73134H12.3234V6.46766ZM15.5573 9.70149H12.821V6.96517H15.5573V9.70149ZM15.5573 6.46766H12.821V3.73134H15.5573V6.46766ZM15.5573 3.23383H12.821V0.497512H15.5573V3.23383ZM18.7911 9.70149H16.0548V6.96517H18.7911V9.70149ZM9.28861 14.2289C9.23886 14.204 9.16424 14.1791 9.08961 14.1791C8.7911 14.1791 8.54234 14.4279 8.54234 14.7264C8.54234 15.0249 8.7911 15.2736 9.08961 15.2736C9.38812 15.2736 9.63687 15.0249 9.63687 14.7264C9.63687 14.6517 9.612 14.5771 9.58712 14.5274C9.53737 14.602 9.48762 14.6517 9.38812 14.6517C9.26374 14.6517 9.16423 14.5522 9.16423 14.4279C9.18911 14.3284 9.23886 14.2537 9.28861 14.2289Z" fill="#019BC6"/>
</svg>
