<svg width="26" height="20" viewBox="0 0 26 20" fill="none" xmlns="http://www.w3.org/2000/svg">
<path d="M25.8434 17.1025C24.9034 17.3416 24.3221 17.1128 23.8005 16.3295C22.6297 14.5753 21.3372 12.9015 20.0901 11.1967C19.9293 10.9761 19.7623 10.7597 19.5541 10.4855C18.0782 12.4768 16.6043 14.3733 15.2211 16.346C14.7264 17.051 14.2069 17.3581 13.2834 17.1087L18.8326 9.661L13.6669 2.93476C14.5553 2.7616 15.1696 2.85024 15.7138 3.64593C16.9156 5.40222 18.241 7.07398 19.5624 8.84264C20.8919 7.08017 22.2009 5.40634 23.4377 3.66654C23.9345 2.96156 24.4684 2.69358 25.361 2.95331C24.6849 3.85001 24.0232 4.73227 23.3573 5.60835C22.4586 6.78951 21.5763 7.98511 20.6446 9.14153C20.3127 9.55381 20.3663 9.82179 20.6631 10.2114C22.3864 12.4768 24.0891 14.7649 25.8434 17.1025ZM0.00618412 9.53732C0.154603 8.79316 0.253548 8.03458 0.459685 7.30486C1.6965 2.88735 6.76747 1.05067 10.2512 3.78816C12.2919 5.39397 12.799 7.65735 12.698 10.2093H1.19559C1.02244 14.7876 4.31856 17.5519 8.51963 16.1419C9.9935 15.6472 10.8613 14.4928 11.2963 13.0499C11.5169 12.3263 11.8817 12.213 12.562 12.4191C12.2136 14.2249 11.4241 15.7338 9.775 16.6779C7.30136 18.092 3.77024 17.6344 1.91295 15.6699C0.816301 14.5155 0.350432 13.0787 0.144296 11.5265C0.113375 11.2792 0.0494728 11.0359 0 10.7906C0.00412273 10.3729 0.00618412 9.95509 0.00618412 9.53732ZM1.21621 9.23017H11.6117C11.5437 5.91962 9.48229 3.5676 6.6644 3.54699C3.57235 3.52225 1.35019 5.81861 1.21621 9.23017Z" fill="black"/>
</svg>
