<svg width="336" height="336" viewBox="0 0 336 336" fill="none" xmlns="http://www.w3.org/2000/svg">
<rect width="336" height="336" rx="168" fill="#F5F5F5"/>
<path fill-rule="evenodd" clip-rule="evenodd" d="M102.905 196.215C104.283 193.812 107.352 192.982 109.739 194.371L121.606 201.275C123.197 202.2 125.018 202.2 126.609 201.275L145.482 190.294C147.073 189.368 147.984 187.779 147.984 185.928C147.984 184.077 147.073 182.487 145.482 181.562L99.1589 154.624C96.7726 153.237 93.7032 154.065 92.3258 156.47L39.1722 249.237C38.9388 249.644 38.9429 250.113 39.183 250.516C39.4228 250.918 39.8306 251.143 40.2969 251.127C60.5234 250.453 77.8157 240 88.0284 222.179L102.905 196.215ZM131.622 215.821L126.674 218.699C125.083 219.624 123.262 219.624 121.671 218.699L115.265 214.973C112.878 213.584 109.809 214.412 108.431 216.817L98.9919 233.291C97.6141 235.696 98.4368 238.789 100.823 240.178L121.671 252.306C123.262 253.231 125.083 253.231 126.674 252.306L226.261 194.371C228.647 192.982 231.717 193.812 233.095 196.216L247.969 222.176C258.181 239.999 275.475 250.453 295.703 251.127C296.169 251.143 296.577 250.919 296.817 250.516C297.057 250.113 297.061 249.645 296.828 249.237L243.674 156.471C242.297 154.066 239.227 153.237 236.841 154.625L170.515 193.211C157.557 200.756 144.584 208.279 131.622 215.821ZM190.501 241.355L209.326 252.306C210.917 253.231 212.738 253.231 214.329 252.306L235.177 240.178C237.563 238.789 238.385 235.696 237.008 233.291L227.573 216.823C226.883 215.62 225.863 214.833 224.531 214.474C223.199 214.116 221.925 214.285 220.732 214.982L190.495 232.626C188.907 233.553 187.998 235.143 188.001 236.992C188.001 238.842 188.912 240.43 190.501 241.355ZM166.749 142.935L143.929 129.659C142.736 128.965 142.324 127.418 143.013 126.216L163.667 90.169C164.586 88.566 166.163 87.6485 168 87.6485C169.837 87.6485 171.414 88.566 172.333 90.169L192.987 126.216C193.675 127.419 193.264 128.965 192.071 129.659L169.251 142.935C168.455 143.398 167.545 143.398 166.749 142.935ZM231.185 134.673L178.831 43.3014C176.535 39.294 172.592 37 168 37C163.408 37 159.465 39.2938 157.169 43.3014L104.807 134.687C103.43 137.091 104.252 140.184 106.638 141.573L165.483 175.806C167.075 176.731 168.896 176.731 170.487 175.806L229.354 141.56C231.74 140.171 232.563 137.078 231.185 134.673Z" fill="#2B2B2B"/>
</svg>
