<svg width="15" height="20" viewBox="0 0 15 20" fill="none" xmlns="http://www.w3.org/2000/svg">
<path d="M4.23617 20C6.08113 20 7.5695 18.5116 7.5695 16.6667V13.3333H4.23617C2.3912 13.3333 0.902832 14.8217 0.902832 16.6667C0.902832 18.5116 2.3912 20 4.23617 20Z" fill="#0ACF83"/>
<path d="M0.902832 10C0.902832 8.15504 2.3912 6.66667 4.23617 6.66667H7.5695V13.3333H4.23617C2.3912 13.3333 0.902832 11.845 0.902832 10Z" fill="#A259FF"/>
<path d="M0.902832 3.33333C0.902832 1.48837 2.3912 0 4.23617 0H7.5695V6.66667H4.23617C2.3912 6.66667 0.902832 5.17829 0.902832 3.33333Z" fill="#F24E1E"/>
<path d="M7.5695 0H10.9028C12.7478 0 14.2362 1.48837 14.2362 3.33333C14.2362 5.17829 12.7478 6.66667 10.9028 6.66667H7.5695V0Z" fill="#FF7262"/>
<path d="M14.2362 10C14.2362 11.845 12.7478 13.3333 10.9028 13.3333C9.05787 13.3333 7.5695 11.845 7.5695 10C7.5695 8.15504 9.05787 6.66667 10.9028 6.66667C12.7478 6.66667 14.2362 8.15504 14.2362 10Z" fill="#1ABCFE"/>
</svg>
