<svg width="21" height="20" viewBox="0 0 21 20" fill="none" xmlns="http://www.w3.org/2000/svg">
<path d="M19.8514 9.10919L11.1188 0.377157C10.6163 -0.125719 9.80065 -0.125719 9.2973 0.377157L7.48432 2.19061L9.78449 4.49079C10.3192 4.31033 10.932 4.43137 11.3581 4.85741C11.5611 5.06062 11.7029 5.31687 11.7671 5.59686C11.8313 5.87684 11.8155 6.16926 11.7214 6.44066L13.9382 8.65781C14.4745 8.47292 15.0935 8.59238 15.5216 9.02142C16.1205 9.61983 16.1205 10.5899 15.5216 11.1887C15.3793 11.3311 15.2103 11.444 15.0243 11.5211C14.8383 11.5981 14.639 11.6378 14.4377 11.6378C14.2364 11.6378 14.037 11.5981 13.851 11.5211C13.665 11.444 13.4961 11.3311 13.3537 11.1887C13.1399 10.9747 12.9942 10.7023 12.9348 10.4057C12.8755 10.1091 12.9052 9.80152 13.0202 9.52176L10.953 7.45433L10.9526 12.8952C11.1026 12.969 11.2396 13.0669 11.3581 13.1848C11.9568 13.7832 11.9568 14.753 11.3581 15.3527C10.7593 15.9511 9.78893 15.9511 9.19083 15.3527C8.59226 14.7532 8.54315 13.7834 9.14156 13.1848C9.28954 13.037 9.43546 12.9253 9.59389 12.8505V7.35927C9.43546 7.28449 9.2897 7.17358 9.1414 7.02481C8.68812 6.57168 8.60335 5.90625 8.83594 5.34919L6.58092 3.0815L0.599328 9.06879C0.0962937 9.57214 0.0994624 10.3878 0.602496 10.8908L9.33644 19.6228C9.83915 20.1257 10.6554 20.1257 11.1589 19.6228L19.8507 10.9314C20.3538 10.4282 20.3542 9.61207 19.8514 9.10919Z" fill="#F34F29"/>
</svg>
