<svg width="189" height="184" viewBox="0 0 189 184" fill="none" xmlns="http://www.w3.org/2000/svg">
<path d="M94.5 0C42.2887 0 0 42.2113 0 94.327C0 136.067 27.0506 171.321 64.6144 183.82C69.3394 184.645 71.1112 181.815 71.1112 179.339C71.1112 177.099 70.9931 169.671 70.9931 161.771C47.25 166.133 41.1075 155.993 39.2175 150.687C38.1544 147.976 33.5475 139.604 29.5312 137.364C26.2237 135.595 21.4987 131.232 29.4131 131.115C36.855 130.997 42.1706 137.953 43.9425 140.783C52.4475 155.05 66.0319 151.041 71.4656 148.565C72.2925 142.434 74.7731 138.307 77.49 135.949C56.4637 133.591 34.4925 125.455 34.4925 89.3749C34.4925 79.1168 38.1544 70.6274 44.1788 64.0245C43.2338 61.6663 39.9262 51.9978 45.1237 39.0278C45.1237 39.0278 53.0381 36.5517 71.1112 48.6963C78.6712 46.574 86.7038 45.5128 94.7363 45.5128C102.769 45.5128 110.801 46.574 118.361 48.6963C136.434 36.4338 144.349 39.0278 144.349 39.0278C149.546 51.9978 146.239 61.6663 145.294 64.0245C151.318 70.6274 154.98 78.9989 154.98 89.3749C154.98 125.573 132.891 133.591 111.864 135.949C115.29 138.897 118.243 144.556 118.243 153.399C118.243 166.016 118.125 176.156 118.125 179.339C118.125 181.815 119.897 184.763 124.622 183.82C143.382 177.498 159.683 165.463 171.232 149.41C182.781 133.356 188.995 114.091 189 94.327C189 42.2113 146.711 0 94.5 0Z" fill="#FDFAF3"/>
</svg>
