<svg width="21" height="20" viewBox="0 0 21 20" fill="none" xmlns="http://www.w3.org/2000/svg">
<path fill-rule="evenodd" clip-rule="evenodd" d="M10.4814 0C4.81951 0 0.228271 4.59022 0.228271 10.2532C0.228271 14.7835 3.16612 18.6266 7.24002 19.9825C7.75227 20.0776 7.94039 19.7601 7.94039 19.4893C7.94039 19.2448 7.93088 18.4371 7.92647 17.5804C5.07403 18.2006 4.47213 16.3706 4.47213 16.3706C4.00572 15.1855 3.3337 14.8704 3.3337 14.8704C2.40326 14.234 3.40382 14.2473 3.40382 14.2473C4.43325 14.3194 4.97555 15.3039 4.97555 15.3039C5.89003 16.871 7.37415 16.418 7.95924 16.1562C8.05126 15.4935 8.31698 15.041 8.61021 14.785C6.33284 14.5261 3.93865 13.6467 3.93865 9.718C3.93865 8.59859 4.33935 7.68394 4.99525 6.96573C4.88862 6.70765 4.53767 5.66481 5.0944 4.25252C5.0944 4.25252 5.95523 3.97695 7.91458 5.30351C8.73262 5.07616 9.60992 4.96189 10.4814 4.95799C11.3525 4.96189 12.2303 5.07582 13.0498 5.30317C15.0068 3.97661 15.8666 4.25218 15.8666 4.25218C16.4247 5.6643 16.0738 6.70731 15.9673 6.96539C16.6247 7.6836 17.0225 8.59825 17.0225 9.71766C17.0225 13.6557 14.6239 14.5227 12.3408 14.7767C12.7087 15.0949 13.0364 15.719 13.0364 16.6754C13.0364 18.0473 13.0245 19.1514 13.0245 19.4891C13.0245 19.762 13.2093 20.0817 13.7288 19.981C17.8003 18.6237 20.7348 14.7818 20.7348 10.2532C20.7346 4.59056 16.1439 0 10.4814 0Z" fill="#181616"/>
<path d="M4.11167 14.7211C4.08909 14.7721 4.00895 14.7874 3.93594 14.7526C3.86123 14.7193 3.81963 14.6498 3.84374 14.5987C3.86581 14.5461 3.94612 14.5317 4.02032 14.5668C4.09503 14.6003 4.13748 14.6704 4.1115 14.7213L4.11167 14.7211ZM4.52697 15.1845C4.47824 15.2298 4.38265 15.2088 4.31779 15.137C4.25055 15.0656 4.23799 14.9701 4.28774 14.924C4.33834 14.8789 4.43104 14.9003 4.49828 14.9716C4.56517 15.0439 4.57842 15.1387 4.52714 15.1847L4.52697 15.1845ZM4.93141 15.7749C4.86858 15.8187 4.76569 15.7777 4.70219 15.6866C4.63937 15.5952 4.63937 15.4857 4.70389 15.4421C4.76722 15.3983 4.86858 15.4378 4.9331 15.5282C4.99559 15.6207 4.99559 15.7304 4.93141 15.7749ZM5.48509 16.3455C5.42906 16.4075 5.30918 16.3908 5.22157 16.3065C5.1321 16.2238 5.10714 16.1061 5.16334 16.0443C5.22039 15.9822 5.34076 15.9995 5.42889 16.0834C5.51836 16.1659 5.54536 16.2837 5.48542 16.3453L5.48509 16.3455ZM6.24913 16.6768C6.22417 16.7571 6.10906 16.7936 5.99275 16.7593C5.87679 16.7241 5.80089 16.6302 5.82466 16.5491C5.84843 16.4681 5.9644 16.4302 6.08138 16.4667C6.19735 16.5017 6.27324 16.5951 6.24913 16.6768ZM7.08839 16.7381C7.09128 16.8226 6.9928 16.8926 6.87107 16.8943C6.74831 16.8972 6.64898 16.8286 6.64779 16.7454C6.64779 16.66 6.74423 16.5909 6.86682 16.5885C6.98856 16.5863 7.08856 16.6542 7.08856 16.7379L7.08839 16.7381ZM7.86908 16.6053C7.88368 16.6876 7.79896 16.7724 7.6779 16.7949C7.55905 16.817 7.44869 16.7657 7.4334 16.6841C7.4188 16.5995 7.50506 16.5148 7.62391 16.4929C7.74514 16.472 7.8538 16.5216 7.86908 16.6053Z" fill="#181616"/>
</svg>
