<svg width="41" height="20" viewBox="0 0 41 20" fill="none" xmlns="http://www.w3.org/2000/svg">
<path fill-rule="evenodd" clip-rule="evenodd" d="M3.03006 7.04195C2.95169 7.04195 2.93233 7.0026 2.97136 6.94422L3.38196 6.41622C3.42066 6.35752 3.51871 6.31849 3.59677 6.31849H10.5756C10.654 6.31849 10.6733 6.37719 10.6343 6.4359L10.3021 6.94422C10.263 7.0026 10.1653 7.0613 10.1066 7.0613L3.03006 7.04195ZM0.0781743 8.84011C0.000119507 8.84011 -0.0195554 8.80141 0.019472 8.74238L0.430066 8.21471C0.469093 8.156 0.566823 8.11698 0.6452 8.11698H9.55893C9.63698 8.11698 9.67633 8.17568 9.65666 8.23438L9.50023 8.70335C9.48087 8.78173 9.4025 8.82076 9.32444 8.82076L0.0781743 8.84011ZM4.80855 10.6386C4.7305 10.6386 4.71115 10.5799 4.75017 10.5212L5.02369 10.0325C5.06304 9.97384 5.14109 9.91546 5.21947 9.91546H9.12866C9.20704 9.91546 9.24606 9.97384 9.24606 10.0522L9.20736 10.5212C9.20736 10.5996 9.12898 10.6583 9.07028 10.6583L4.80855 10.6386ZM25.0996 6.69006C23.8678 7.00292 23.0273 7.23741 21.8155 7.54995C21.522 7.62833 21.5026 7.64768 21.2484 7.35449C20.9552 7.02227 20.7401 6.80714 20.3298 6.61168C19.0981 6.00595 17.9056 6.18173 16.7916 6.90519C15.4624 7.76508 14.7783 9.03557 14.7976 10.6189C14.817 12.1829 15.8923 13.4731 17.4367 13.6882C18.7658 13.864 19.8802 13.3947 20.7598 12.3981C20.9356 12.1829 21.092 11.9484 21.2875 11.6746H17.5147C17.1044 11.6746 17.0067 11.4204 17.1435 11.0882C17.3976 10.4822 17.8666 9.46584 18.1401 8.95752C18.1991 8.84011 18.3359 8.64465 18.6291 8.64465H25.7443C25.7056 9.17265 25.7056 9.70033 25.6272 10.2283C25.4121 11.6356 24.8844 12.9257 24.0242 14.0595C22.6167 15.9166 20.7795 17.0697 18.453 17.3826C16.5374 17.6368 14.7586 17.2652 13.1949 16.0924C11.7483 14.9977 10.9275 13.5511 10.7123 11.753C10.4582 9.62227 11.0836 7.70638 12.3737 6.0253C13.7616 4.20746 15.5991 3.05406 17.8472 2.64347C19.6848 2.31125 21.4439 2.52638 23.0272 3.60141C24.0632 4.28552 24.8061 5.22379 25.2947 6.35752C25.4121 6.53363 25.3341 6.63136 25.0992 6.68973L25.0996 6.69006Z" fill="#00ACD7"/>
<path d="M31.5697 17.5C29.7909 17.4607 28.1682 16.9526 26.8 15.7796C25.6466 14.7829 24.9235 13.5121 24.689 12.0068C24.3371 9.79806 24.9428 7.84314 26.2723 6.10368C27.6992 4.22682 29.4194 3.24952 31.7458 2.83893C33.7395 2.48736 35.6163 2.68282 37.3168 3.8359C38.8611 4.89157 39.8187 6.31849 40.0729 8.19503C40.4051 10.8341 39.6429 12.9844 37.8248 14.8219C36.5346 16.1315 34.9512 16.9526 33.1334 17.3239C32.6057 17.4216 32.0777 17.4413 31.5697 17.5ZM36.2221 9.6026C36.2027 9.34844 36.2027 9.15298 36.1634 8.95752C35.8118 7.02228 34.0327 5.92757 32.1758 6.35784C30.3576 6.76811 29.1849 7.92152 28.7549 9.75903C28.403 11.2837 29.1458 12.828 30.5531 13.4534C31.6284 13.9227 32.7035 13.864 33.7395 13.3363C35.2838 12.5348 36.1243 11.2837 36.2221 9.6026Z" fill="#00ACD7"/>
</svg>
