<svg width="18" height="20" viewBox="0 0 18 20" fill="none" xmlns="http://www.w3.org/2000/svg">
<path d="M1.75667 18.0008L0.151733 0H17.7869L16.1802 17.998L8.95858 20L1.75667 18.0008Z" fill="#E44D26"/>
<path d="M8.96933 18.4698L14.8048 16.8519L16.1778 1.47179H8.96933V18.4698Z" fill="#F16529"/>
<path d="M8.96933 8.14803H6.04788L5.84608 5.88717H8.96933V3.67956H3.43331L4.02876 10.3558H8.96933V8.14803ZM8.96933 13.8817L8.95954 13.8844L6.50089 13.2203L6.34384 11.4598H4.12742L4.43669 14.9261L8.95922 16.1815L8.96933 16.1788V13.8817Z" fill="#EBEBEB"/>
<path d="M8.96163 8.14803V10.3558H11.6802L11.424 13.219L8.96163 13.8836V16.1806L13.4877 14.9261L14.0397 8.74092L14.0934 8.14803H8.96163ZM8.96163 3.67956V5.88717H14.2944L14.4922 3.67956H8.96163Z" fill="white"/>
</svg>
