<svg width="21" height="20" viewBox="0 0 21 20" fill="none" xmlns="http://www.w3.org/2000/svg">
<path d="M0.261475 0V20H20.2615V0H0.261475ZM10.8405 17.0421C10.5453 17.6419 9.98179 18.036 9.32883 18.2262C8.32547 18.4566 7.36579 18.3253 6.65187 17.8968C6.17411 17.6037 5.80099 17.1525 5.54771 16.6326L7.07091 15.6998C7.08419 15.7054 7.12419 15.7778 7.17763 15.8712C7.37187 16.1966 7.53939 16.427 7.86867 16.5888C8.19219 16.6992 8.90243 16.7698 9.17667 16.2005C9.34419 15.9109 9.29091 14.98 9.29091 13.9501C9.29075 12.3317 9.29827 10.72 9.29827 9.12H11.1717C11.1717 10.88 11.1813 12.5469 11.1717 14.2643C11.1757 15.3171 11.2671 16.2557 10.8405 17.0421ZM18.6124 16.5128C17.9612 18.7403 14.3304 18.8126 12.8796 17.341C12.573 16.9946 12.3808 16.8136 12.198 16.4138C12.969 15.9702 12.969 15.9702 13.7192 15.5362C14.1268 16.1626 14.5036 16.507 15.1815 16.648C16.1012 16.7603 17.0264 16.4443 16.8189 15.4675C16.6056 14.6698 14.9357 14.4757 13.7992 13.6226C12.6455 12.8477 12.3751 10.9648 13.3232 9.88896C13.6392 9.49104 14.1781 9.19408 14.7436 9.05136L15.3336 8.97504C16.4666 8.95216 17.1748 9.25136 17.6946 9.83184C17.8392 9.9784 17.9573 10.1365 18.1781 10.479C17.5746 10.8637 17.5765 10.86 16.712 11.4197C16.5274 11.0219 16.221 10.7723 15.8972 10.6638C15.3944 10.5115 14.7605 10.6771 14.629 11.2083C14.5834 11.372 14.5928 11.5243 14.6653 11.7947C14.869 12.2592 15.5525 12.4611 16.1656 12.7429C17.9306 13.4587 18.5266 14.2262 18.6732 15.1398C18.8143 15.9264 18.6391 16.4366 18.6124 16.5128Z" fill="#F0DB4F"/>
</svg>
