<svg width="52" height="52" viewBox="0 0 52 52" fill="#fdfaf3" xmlns="http://www.w3.org/2000/svg">
<path d="M16.625 4.125V29.125H4.125L4.125 4.125H16.625ZM4.125 1C2.39911 1 1 2.39911 1 4.125V29.125C1 30.8509 2.39911 32.25 4.125 32.25H16.625C18.3509 32.25 19.75 30.8509 19.75 29.125V4.125C19.75 2.39911 18.3509 1 16.625 1H4.125Z" fill="#fdfaf3"/>
<path d="M44.75 7.25V22.875H29.125V7.25H44.75ZM29.125 4.125C27.3991 4.125 26 5.52411 26 7.25V22.875C26 24.6009 27.3991 26 29.125 26H44.75C46.4759 26 47.875 24.6009 47.875 22.875V7.25C47.875 5.52411 46.4759 4.125 44.75 4.125H29.125Z" fill="#fdfaf3"/>
<path d="M16.625 41.625V47.875H10.375V41.625H16.625ZM10.375 38.5C8.64911 38.5 7.25 39.8991 7.25 41.625V47.875C7.25 49.6009 8.64911 51 10.375 51H16.625C18.3509 51 19.75 49.6009 19.75 47.875V41.625C19.75 39.8991 18.3509 38.5 16.625 38.5H10.375Z" fill="#fdfaf3"/>
<path d="M47.875 35.375V41.625H29.125V35.375H47.875ZM29.125 32.25C27.3991 32.25 26 33.6491 26 35.375V41.625C26 43.3509 27.3991 44.75 29.125 44.75H47.875C49.6009 44.75 51 43.3509 51 41.625V35.375C51 33.6491 49.6009 32.25 47.875 32.25H29.125Z" fill="#fdfaf3"/>
<path d="M16.625 4.125V29.125H4.125L4.125 4.125H16.625ZM4.125 1C2.39911 1 1 2.39911 1 4.125V29.125C1 30.8509 2.39911 32.25 4.125 32.25H16.625C18.3509 32.25 19.75 30.8509 19.75 29.125V4.125C19.75 2.39911 18.3509 1 16.625 1H4.125Z" stroke="#fdfaf3" stroke-width="2"/>
<path d="M44.75 7.25V22.875H29.125V7.25H44.75ZM29.125 4.125C27.3991 4.125 26 5.52411 26 7.25V22.875C26 24.6009 27.3991 26 29.125 26H44.75C46.4759 26 47.875 24.6009 47.875 22.875V7.25C47.875 5.52411 46.4759 4.125 44.75 4.125H29.125Z" stroke="#fdfaf3" stroke-width="2"/>
<path d="M16.625 41.625V47.875H10.375V41.625H16.625ZM10.375 38.5C8.64911 38.5 7.25 39.8991 7.25 41.625V47.875C7.25 49.6009 8.64911 51 10.375 51H16.625C18.3509 51 19.75 49.6009 19.75 47.875V41.625C19.75 39.8991 18.3509 38.5 16.625 38.5H10.375Z" stroke="#fdfaf3" stroke-width="2"/>
<path d="M47.875 35.375V41.625H29.125V35.375H47.875ZM29.125 32.25C27.3991 32.25 26 33.6491 26 35.375V41.625C26 43.3509 27.3991 44.75 29.125 44.75H47.875C49.6009 44.75 51 43.3509 51 41.625V35.375C51 33.6491 49.6009 32.25 47.875 32.25H29.125Z" stroke="#fdfaf3" stroke-width="2"/>
</svg>
