<svg width="178" height="57" viewBox="0 0 178 57" fill="none" xmlns="http://www.w3.org/2000/svg">
<path fill-rule="evenodd" clip-rule="evenodd" d="M14.7523 40.3554C15.0704 39.799 15.779 39.607 16.3299 39.9284L19.0694 41.5265C19.4366 41.7407 19.857 41.7407 20.2243 41.5265L24.5813 38.9848C24.9485 38.7704 25.1588 38.4025 25.1587 37.9741C25.1587 37.5455 24.9484 37.1776 24.5811 36.9634L13.8876 30.7278C13.3367 30.4067 12.6281 30.5984 12.3102 31.1551L0.0397595 52.6289C-0.0141284 52.7231 -0.0131812 52.8316 0.0422506 52.9249C0.097612 53.018 0.19174 53.0701 0.299376 53.0664C4.96864 52.9105 8.96054 50.4907 11.3181 46.3656L14.7523 40.3554ZM21.3816 44.8936L20.2393 45.5599C19.872 45.7741 19.4516 45.7741 19.0844 45.5599L17.6056 44.6974C17.0547 44.376 16.3461 44.5677 16.028 45.1244L13.849 48.9378C13.531 49.4944 13.7209 50.2105 14.2718 50.5319L19.0845 53.3394C19.4517 53.5535 19.8721 53.5535 20.2394 53.3394L43.2288 39.9284C43.7797 39.607 44.4883 39.799 44.8065 40.3557L48.2402 46.3648C50.5976 50.4904 54.5899 52.9105 59.2594 53.0664C59.3671 53.0701 59.4612 53.0182 59.5165 52.9249C59.5721 52.8316 59.5729 52.7233 59.5192 52.6289L47.2487 31.1554C46.9307 30.5987 46.2221 30.4067 45.6712 30.7281L30.3601 39.6599C27.3686 41.4065 24.3738 43.1479 21.3816 44.8936ZM34.9738 50.8043L39.3194 53.3394C39.6866 53.5535 40.107 53.5535 40.4744 53.3394L45.287 50.5319C45.8379 50.2105 46.0278 49.4944 45.7098 48.9378L43.5316 45.1257C43.3724 44.8471 43.137 44.665 42.8294 44.5819C42.522 44.499 42.228 44.5383 41.9525 44.6995L34.9724 48.7837C34.6058 48.9985 34.396 49.3664 34.3965 49.7944C34.3965 50.2228 34.6068 50.5902 34.9738 50.8043ZM29.4906 28.022L24.2226 24.9489C23.9471 24.7882 23.8522 24.4301 24.0112 24.1518L28.7791 15.8076C28.9913 15.4366 29.3553 15.2242 29.7794 15.2242C30.2035 15.2242 30.5675 15.4366 30.7797 15.8076L35.5476 24.1519C35.7066 24.4302 35.6116 24.7882 35.3362 24.9489L30.0681 28.022C29.8844 28.1291 29.6744 28.1291 29.4906 28.022ZM44.3654 26.1096L32.2798 4.95865C31.7496 4.03101 30.8395 3.5 29.7794 3.5C28.7193 3.5 27.8092 4.03098 27.279 4.95865L15.1914 26.1126C14.8734 26.6692 15.0633 27.3853 15.6142 27.7066L29.1984 35.6311C29.5659 35.8452 29.9862 35.8452 30.3534 35.6311L43.9429 27.7036C44.4936 27.3823 44.6837 26.6662 44.3654 26.1096Z" fill="#097675"/>
<path d="M86.6986 2.96V17H83.2786V8.58L80.1386 17H77.3786L74.2186 8.56V17H70.7986V2.96H74.8386L78.7786 12.68L82.6786 2.96H86.6986ZM100.178 5.84V17H96.758V15.48C96.4113 15.9733 95.938 16.3733 95.338 16.68C94.7513 16.9733 94.098 17.12 93.378 17.12C92.5246 17.12 91.7713 16.9333 91.118 16.56C90.4646 16.1733 89.958 15.62 89.598 14.9C89.238 14.18 89.058 13.3333 89.058 12.36V5.84H92.458V11.9C92.458 12.6467 92.6513 13.2267 93.038 13.64C93.4246 14.0533 93.9446 14.26 94.598 14.26C95.2646 14.26 95.7913 14.0533 96.178 13.64C96.5646 13.2267 96.758 12.6467 96.758 11.9V5.84H100.178ZM109.495 5.72C110.775 5.72 111.801 6.14667 112.575 7C113.348 7.84 113.735 9 113.735 10.48V17H110.335V10.94C110.335 10.1933 110.141 9.61333 109.755 9.2C109.368 8.78667 108.848 8.58 108.195 8.58C107.541 8.58 107.021 8.78667 106.635 9.2C106.248 9.61333 106.055 10.1933 106.055 10.94V17H102.635V2.2H106.055V7.34C106.401 6.84667 106.875 6.45333 107.475 6.16C108.075 5.86667 108.748 5.72 109.495 5.72ZM115.431 11.4C115.431 10.2533 115.644 9.24667 116.071 8.38C116.511 7.51333 117.104 6.84667 117.851 6.38C118.598 5.91333 119.431 5.68 120.351 5.68C121.138 5.68 121.824 5.84 122.411 6.16C123.011 6.48 123.471 6.9 123.791 7.42V5.84H127.211V17H123.791V15.42C123.458 15.94 122.991 16.36 122.391 16.68C121.804 17 121.118 17.16 120.331 17.16C119.424 17.16 118.598 16.9267 117.851 16.46C117.104 15.98 116.511 15.3067 116.071 14.44C115.644 13.56 115.431 12.5467 115.431 11.4ZM123.791 11.42C123.791 10.5667 123.551 9.89333 123.071 9.4C122.604 8.90667 122.031 8.66 121.351 8.66C120.671 8.66 120.091 8.90667 119.611 9.4C119.144 9.88 118.911 10.5467 118.911 11.4C118.911 12.2533 119.144 12.9333 119.611 13.44C120.091 13.9333 120.671 14.18 121.351 14.18C122.031 14.18 122.604 13.9333 123.071 13.44C123.551 12.9467 123.791 12.2733 123.791 11.42ZM143.925 5.72C145.312 5.72 146.412 6.14 147.225 6.98C148.052 7.82 148.465 8.98667 148.465 10.48V17H145.065V10.94C145.065 10.22 144.872 9.66667 144.485 9.28C144.112 8.88 143.592 8.68 142.925 8.68C142.259 8.68 141.732 8.88 141.345 9.28C140.972 9.66667 140.785 10.22 140.785 10.94V17H137.385V10.94C137.385 10.22 137.192 9.66667 136.805 9.28C136.432 8.88 135.912 8.68 135.245 8.68C134.579 8.68 134.052 8.88 133.665 9.28C133.292 9.66667 133.105 10.22 133.105 10.94V17H129.685V5.84H133.105V7.24C133.452 6.77333 133.905 6.40667 134.465 6.14C135.025 5.86 135.659 5.72 136.365 5.72C137.205 5.72 137.952 5.9 138.605 6.26C139.272 6.62 139.792 7.13333 140.165 7.8C140.552 7.18667 141.079 6.68667 141.745 6.3C142.412 5.91333 143.139 5.72 143.925 5.72ZM150.177 11.4C150.177 10.2533 150.391 9.24667 150.817 8.38C151.257 7.51333 151.851 6.84667 152.597 6.38C153.344 5.91333 154.177 5.68 155.097 5.68C155.884 5.68 156.571 5.84 157.157 6.16C157.757 6.48 158.217 6.9 158.537 7.42V5.84H161.957V17H158.537V15.42C158.204 15.94 157.737 16.36 157.137 16.68C156.551 17 155.864 17.16 155.077 17.16C154.171 17.16 153.344 16.9267 152.597 16.46C151.851 15.98 151.257 15.3067 150.817 14.44C150.391 13.56 150.177 12.5467 150.177 11.4ZM158.537 11.42C158.537 10.5667 158.297 9.89333 157.817 9.4C157.351 8.90667 156.777 8.66 156.097 8.66C155.417 8.66 154.837 8.90667 154.357 9.4C153.891 9.88 153.657 10.5467 153.657 11.4C153.657 12.2533 153.891 12.9333 154.357 13.44C154.837 13.9333 155.417 14.18 156.097 14.18C156.777 14.18 157.351 13.9333 157.817 13.44C158.297 12.9467 158.537 12.2733 158.537 11.42ZM163.751 11.4C163.751 10.2533 163.965 9.24667 164.391 8.38C164.831 7.51333 165.425 6.84667 166.171 6.38C166.918 5.91333 167.751 5.68 168.671 5.68C169.405 5.68 170.071 5.83333 170.671 6.14C171.285 6.44667 171.765 6.86 172.111 7.38V2.2H175.531V17H172.111V15.4C171.791 15.9333 171.331 16.36 170.731 16.68C170.145 17 169.458 17.16 168.671 17.16C167.751 17.16 166.918 16.9267 166.171 16.46C165.425 15.98 164.831 15.3067 164.391 14.44C163.965 13.56 163.751 12.5467 163.751 11.4ZM172.111 11.42C172.111 10.5667 171.871 9.89333 171.391 9.4C170.925 8.90667 170.351 8.66 169.671 8.66C168.991 8.66 168.411 8.90667 167.931 9.4C167.465 9.88 167.231 10.5467 167.231 11.4C167.231 12.2533 167.465 12.9333 167.931 13.44C168.411 13.9333 168.991 14.18 169.671 14.18C170.351 14.18 170.925 13.9333 171.391 13.44C171.871 12.9467 172.111 12.2733 172.111 11.42ZM79.5386 33.52H74.2986L73.4586 36H69.8786L74.9586 21.96H78.9186L83.9986 36H80.3786L79.5386 33.52ZM78.6586 30.88L76.9186 25.74L75.1986 30.88H78.6586ZM88.9647 26.42C89.2847 25.9 89.7447 25.48 90.3447 25.16C90.9447 24.84 91.6314 24.68 92.4047 24.68C93.3247 24.68 94.158 24.9133 94.9047 25.38C95.6514 25.8467 96.238 26.5133 96.6647 27.38C97.1047 28.2467 97.3247 29.2533 97.3247 30.4C97.3247 31.5467 97.1047 32.56 96.6647 33.44C96.238 34.3067 95.6514 34.98 94.9047 35.46C94.158 35.9267 93.3247 36.16 92.4047 36.16C91.618 36.16 90.9314 36.0067 90.3447 35.7C89.758 35.38 89.298 34.96 88.9647 34.44V36H85.5447V21.2H88.9647V26.42ZM93.8447 30.4C93.8447 29.5467 93.6047 28.88 93.1247 28.4C92.658 27.9067 92.078 27.66 91.3847 27.66C90.7047 27.66 90.1247 27.9067 89.6447 28.4C89.178 28.8933 88.9447 29.5667 88.9447 30.42C88.9447 31.2733 89.178 31.9467 89.6447 32.44C90.1247 32.9333 90.7047 33.18 91.3847 33.18C92.0647 33.18 92.6447 32.9333 93.1247 32.44C93.6047 31.9333 93.8447 31.2533 93.8447 30.4ZM98.4389 30.4C98.4389 29.2533 98.6522 28.2467 99.0789 27.38C99.5189 26.5133 100.112 25.8467 100.859 25.38C101.606 24.9133 102.439 24.68 103.359 24.68C104.092 24.68 104.759 24.8333 105.359 25.14C105.972 25.4467 106.452 25.86 106.799 26.38V21.2H110.219V36H106.799V34.4C106.479 34.9333 106.019 35.36 105.419 35.68C104.832 36 104.146 36.16 103.359 36.16C102.439 36.16 101.606 35.9267 100.859 35.46C100.112 34.98 99.5189 34.3067 99.0789 33.44C98.6522 32.56 98.4389 31.5467 98.4389 30.4ZM106.799 30.42C106.799 29.5667 106.559 28.8933 106.079 28.4C105.612 27.9067 105.039 27.66 104.359 27.66C103.679 27.66 103.099 27.9067 102.619 28.4C102.152 28.88 101.919 29.5467 101.919 30.4C101.919 31.2533 102.152 31.9333 102.619 32.44C103.099 32.9333 103.679 33.18 104.359 33.18C105.039 33.18 105.612 32.9333 106.079 32.44C106.559 31.9467 106.799 31.2733 106.799 30.42ZM123.713 24.84V36H120.293V34.48C119.946 34.9733 119.473 35.3733 118.873 35.68C118.286 35.9733 117.633 36.12 116.913 36.12C116.06 36.12 115.306 35.9333 114.653 35.56C114 35.1733 113.493 34.62 113.133 33.9C112.773 33.18 112.593 32.3333 112.593 31.36V24.84H115.993V30.9C115.993 31.6467 116.186 32.2267 116.573 32.64C116.96 33.0533 117.48 33.26 118.133 33.26C118.8 33.26 119.326 33.0533 119.713 32.64C120.1 32.2267 120.293 31.6467 120.293 30.9V24.84H123.713ZM129.59 21.2V36H126.17V21.2H129.59ZM79.5386 52.52H74.2986L73.4586 55H69.8786L74.9586 40.96H78.9186L83.9986 55H80.3786L79.5386 52.52ZM78.6586 49.88L76.9186 44.74L75.1986 49.88H78.6586ZM88.7447 52.18H93.5847V55H84.9247V52.28L89.5647 46.66H84.9647V43.84H93.4847V46.56L88.7447 52.18ZM97.1866 42.68C96.5866 42.68 96.0932 42.5067 95.7066 42.16C95.3332 41.8 95.1466 41.36 95.1466 40.84C95.1466 40.3067 95.3332 39.8667 95.7066 39.52C96.0932 39.16 96.5866 38.98 97.1866 38.98C97.7732 38.98 98.2532 39.16 98.6266 39.52C99.0132 39.8667 99.2066 40.3067 99.2066 40.84C99.2066 41.36 99.0132 41.8 98.6266 42.16C98.2532 42.5067 97.7732 42.68 97.1866 42.68ZM98.8866 43.84V55H95.4666V43.84H98.8866ZM105.905 55.16C104.932 55.16 104.065 54.9933 103.305 54.66C102.545 54.3267 101.945 53.8733 101.505 53.3C101.065 52.7133 100.818 52.06 100.765 51.34H104.145C104.185 51.7267 104.365 52.04 104.685 52.28C105.005 52.52 105.398 52.64 105.865 52.64C106.292 52.64 106.618 52.56 106.845 52.4C107.085 52.2267 107.205 52.0067 107.205 51.74C107.205 51.42 107.038 51.1867 106.705 51.04C106.372 50.88 105.832 50.7067 105.085 50.52C104.285 50.3333 103.618 50.14 103.085 49.94C102.552 49.7267 102.092 49.4 101.705 48.96C101.318 48.5067 101.125 47.9 101.125 47.14C101.125 46.5 101.298 45.92 101.645 45.4C102.005 44.8667 102.525 44.4467 103.205 44.14C103.898 43.8333 104.718 43.68 105.665 43.68C107.065 43.68 108.165 44.0267 108.965 44.72C109.778 45.4133 110.245 46.3333 110.365 47.48H107.205C107.152 47.0933 106.978 46.7867 106.685 46.56C106.405 46.3333 106.032 46.22 105.565 46.22C105.165 46.22 104.858 46.3 104.645 46.46C104.432 46.6067 104.325 46.8133 104.325 47.08C104.325 47.4 104.492 47.64 104.825 47.8C105.172 47.96 105.705 48.12 106.425 48.28C107.252 48.4933 107.925 48.7067 108.445 48.92C108.965 49.12 109.418 49.4533 109.805 49.92C110.205 50.3733 110.412 50.9867 110.425 51.76C110.425 52.4133 110.238 53 109.865 53.52C109.505 54.0267 108.978 54.4267 108.285 54.72C107.605 55.0133 106.812 55.16 105.905 55.16Z" fill="#097675"/>
</svg>
