<svg width="10" height="20" viewBox="0 0 10 20" fill="none" xmlns="http://www.w3.org/2000/svg">
<path fill-rule="evenodd" clip-rule="evenodd" d="M8.83613 6.52593C9.0993 7.28723 9.28885 8.06444 9.35115 8.87001C9.42855 9.8694 9.39313 10.8617 9.18243 11.8447C9.17669 11.8718 9.16456 11.8972 9.15554 11.9234C9.08946 11.9236 9.02207 11.9154 8.95747 11.9254C8.41162 12.0111 7.86626 12.1 7.3209 12.1884C6.75718 12.2797 6.19264 12.3675 5.6299 12.465C5.43051 12.4994 5.18374 12.4583 5.10323 12.7341C5.10094 12.7416 5.07798 12.7429 5.0647 12.7472L5.09192 11.0992L5.06421 7.12261L5.32689 7.07752C5.75648 7.00717 6.18608 6.93585 6.616 6.86747C7.12906 6.78598 7.64261 6.70678 8.15599 6.62726C8.38243 6.59201 8.6092 6.5597 8.83613 6.52593Z" fill="#439934"/>
<path fill-rule="evenodd" clip-rule="evenodd" d="M4.52229 17.5515C4.24519 17.3132 3.95841 17.0855 3.69278 16.8349C2.26347 15.4868 1.21801 13.9001 0.703152 11.987C0.561319 11.4605 0.46671 10.9255 0.436376 10.3815C0.41506 10.0007 0.384233 9.61656 0.411124 9.23779C0.482778 8.23038 0.628382 7.23263 0.923853 6.26227L0.940085 6.23964C0.96878 6.27784 1.0101 6.31162 1.02469 6.35474C1.31311 7.2041 1.5994 8.05411 1.88421 8.90461C2.77915 11.5773 3.67294 14.2506 4.56935 16.9226C4.5869 16.9748 4.63232 17.0176 4.66495 17.0646L4.52229 17.5515Z" fill="#45A538"/>
<path fill-rule="evenodd" clip-rule="evenodd" d="M8.83613 6.52593C8.6092 6.5597 8.38227 6.59201 8.15583 6.62693C7.64244 6.70646 7.12889 6.78565 6.61584 6.86715C6.18591 6.93552 5.75632 7.00685 5.32672 7.07719L5.06404 7.12228L5.06208 6.95093C5.05339 6.81008 5.03847 6.6694 5.03683 6.52855C5.02551 5.63033 5.01846 4.73212 5.00731 3.8339C5.00043 3.27165 4.9901 2.70957 4.97862 2.14749C4.97157 1.79824 4.96403 1.44882 4.94828 1.10006C4.93976 0.912646 4.90959 0.726214 4.89729 0.538799C4.8904 0.431072 4.89991 0.322525 4.90204 0.214306C5.03601 0.473868 5.16702 0.735397 5.30475 0.99299C5.52234 1.40029 5.86896 1.70035 6.181 2.02779C7.41453 3.32183 8.29028 4.8264 8.83613 6.52593Z" fill="#46A037"/>
<path fill-rule="evenodd" clip-rule="evenodd" d="M5.06454 12.747C5.07782 12.7428 5.10094 12.7415 5.10307 12.7339C5.18358 12.4581 5.43035 12.4993 5.62974 12.4648C6.19247 12.3675 6.75701 12.2796 7.32074 12.1882C7.86609 12.0999 8.41145 12.011 8.9573 11.9252C9.02191 11.9151 9.0893 11.9234 9.15538 11.9233C9.05339 12.2873 8.97304 12.6592 8.84367 13.0132C8.69676 13.4147 8.51902 13.8066 8.33029 14.1908C8.04775 14.7638 7.69806 15.3012 7.2886 15.7916C6.97394 16.17 6.62322 16.5198 6.27167 16.8653C6.07737 17.0563 5.8483 17.2119 5.63515 17.3836L5.57989 17.3458L5.38083 17.1757L5.17489 16.7242C5.03422 16.1977 4.95747 15.6561 4.94632 15.1111L4.95009 15.0191L4.97813 14.6214C4.98747 14.4856 4.99993 14.35 5.00567 14.2139C5.02682 13.7249 5.04519 13.236 5.06454 12.747Z" fill="#409433"/>
<path fill-rule="evenodd" clip-rule="evenodd" d="M5.06454 12.747C5.04519 13.236 5.02682 13.7249 5.006 14.2141C5.00026 14.3502 4.9878 14.4858 4.97845 14.6215L4.85302 14.6689C4.57444 13.8487 4.29569 13.0373 4.02301 12.2237C3.5721 10.8776 3.1266 9.52949 2.67634 8.18315C2.31268 7.09645 1.94648 6.0106 1.57776 4.9256C1.56054 4.87477 1.51102 4.83509 1.47659 4.79016L2.27938 3.31412C2.30692 3.362 2.34332 3.40676 2.3607 3.45825C2.73251 4.55718 3.10242 5.65675 3.47044 6.75696C3.94857 8.1884 4.42375 9.62099 4.90155 11.0526C4.92057 11.1098 4.95205 11.1626 4.98206 11.2267L5.09192 11.0988L5.06454 12.747Z" fill="#4FAA41"/>
<path fill-rule="evenodd" clip-rule="evenodd" d="M1.47675 4.79033C1.51119 4.83525 1.56054 4.87493 1.57792 4.92576C1.94665 6.01076 2.31284 7.09661 2.67651 8.18332C3.12676 9.52966 3.57226 10.8778 4.02318 12.2238C4.29569 13.0373 4.57444 13.8489 4.85318 14.6691L4.97862 14.6217L4.95058 15.0195L4.92516 15.1111C4.88155 15.5466 4.84482 15.9831 4.79169 16.4176C4.76497 16.6354 4.70823 16.8492 4.66511 17.0648C4.63265 17.0177 4.58706 16.975 4.56952 16.9228C3.6731 14.2506 2.77931 11.5775 1.88438 8.90478C1.59966 8.05422 1.31316 7.20426 1.02486 6.35491C1.01026 6.31179 0.969108 6.27801 0.940249 6.2398L1.47675 4.79033Z" fill="#4AA73C"/>
<path fill-rule="evenodd" clip-rule="evenodd" d="M5.09176 11.099L4.9819 11.2269C4.95189 11.1628 4.92041 11.1098 4.90139 11.0528C4.42375 9.62115 3.94841 8.18856 3.47028 6.75712C3.10226 5.65692 2.73234 4.55735 2.36054 3.45841C2.34332 3.40693 2.30692 3.362 2.27921 3.31429L3.27204 2.00828C3.30336 2.05009 3.34796 2.08731 3.36419 2.13437C3.63982 2.94126 3.91299 3.74913 4.18452 4.55749C4.43818 5.3124 4.68807 6.06846 4.94468 6.82238C4.96189 6.87288 5.02174 6.90863 5.06175 6.95126L5.06372 7.12261C5.07323 8.4478 5.08257 9.77348 5.09176 11.099Z" fill="#57AE47"/>
<path fill-rule="evenodd" clip-rule="evenodd" d="M5.06208 6.95093C5.02207 6.9083 4.96222 6.87256 4.945 6.82205C4.68839 6.06813 4.43851 5.31207 4.18485 4.55716C3.91332 3.7488 3.64015 2.94109 3.36452 2.13404C3.34828 2.08699 3.30368 2.04976 3.27237 2.00795C3.59522 1.69182 3.90807 1.36438 4.24388 1.06284C4.54246 0.794917 4.78251 0.507645 4.7935 0.0842796C4.79399 0.066735 4.80317 0.0491904 4.81727 0L4.90237 0.214142C4.90024 0.322525 4.89057 0.430908 4.89762 0.538635C4.90991 0.72605 4.94009 0.912482 4.94861 1.0999C4.96435 1.44866 4.9719 1.79807 4.97895 2.14733C4.99026 2.70941 5.00059 3.27149 5.00764 3.83374C5.01863 4.73195 5.02584 5.63017 5.03715 6.52839C5.03847 6.66956 5.05322 6.81008 5.06208 6.95093Z" fill="#60B24F"/>
<path fill-rule="evenodd" clip-rule="evenodd" d="M4.66495 17.0646C4.70807 16.849 4.76464 16.635 4.79137 16.4175C4.84466 15.9831 4.88122 15.5465 4.92484 15.111L4.93566 15.1093L4.94632 15.1111C4.95747 15.6561 5.03422 16.1977 5.17489 16.7242C5.14603 16.7623 5.10537 16.7962 5.09012 16.8392C4.97091 17.1753 4.85859 17.5141 4.73873 17.8502C4.72234 17.8961 4.67675 17.9319 4.64461 17.9722L4.52229 17.5515L4.66495 17.0646Z" fill="#A9AA88"/>
<path fill-rule="evenodd" clip-rule="evenodd" d="M4.64478 17.9724C4.67692 17.932 4.72266 17.8963 4.7389 17.8504C4.85876 17.5142 4.97124 17.1757 5.09028 16.8394C5.10553 16.7964 5.14619 16.7625 5.17522 16.7244L5.381 17.176C5.34033 17.2337 5.28425 17.2857 5.26163 17.3499L4.86745 18.5074C4.85121 18.5538 4.79579 18.5866 4.75874 18.6258L4.64478 17.9724Z" fill="#B6B598"/>
<path fill-rule="evenodd" clip-rule="evenodd" d="M4.75874 18.6258C4.79596 18.5868 4.85121 18.5538 4.86745 18.5074L5.26163 17.3499C5.28409 17.2858 5.34033 17.2337 5.381 17.176L5.58022 17.3458C5.48397 17.441 5.43051 17.5508 5.46265 17.6897L5.40215 17.8878C5.3746 17.9217 5.33476 17.9512 5.32115 17.9901C5.18358 18.3841 5.05224 18.7802 4.91369 19.1743C4.89614 19.2243 4.84744 19.2635 4.81301 19.3074C4.79514 19.08 4.77694 18.8532 4.75874 18.6258Z" fill="#C2C1A7"/>
<path fill-rule="evenodd" clip-rule="evenodd" d="M4.81301 19.3074C4.84728 19.2633 4.89598 19.2241 4.91369 19.1743C5.05224 18.7804 5.18358 18.3843 5.32115 17.9901C5.33476 17.9514 5.37444 17.9217 5.40215 17.8878L5.31885 18.797C5.29655 18.8227 5.26425 18.8452 5.25359 18.8752C5.15931 19.1398 5.07044 19.4064 4.97583 19.6711C4.95632 19.7257 4.91893 19.7739 4.88975 19.8249C4.86384 19.7909 4.81744 19.7581 4.81531 19.7227C4.80694 19.5848 4.81252 19.446 4.81301 19.3074Z" fill="#CECDB7"/>
<path fill-rule="evenodd" clip-rule="evenodd" d="M4.88975 19.8249C4.91893 19.7737 4.95632 19.7255 4.97583 19.6711C5.0706 19.4066 5.15931 19.14 5.25359 18.8752C5.26425 18.8452 5.29672 18.8229 5.31885 18.797L5.32066 19.3938L5.12094 19.906L4.88975 19.8249Z" fill="#DBDAC7"/>
<path fill-rule="evenodd" clip-rule="evenodd" d="M5.12094 19.906L5.32066 19.3938L5.36181 20L5.12094 19.906Z" fill="#EBE9DC"/>
<path fill-rule="evenodd" clip-rule="evenodd" d="M5.46265 17.6897C5.43051 17.5508 5.4838 17.4408 5.58022 17.3458L5.63547 17.3837L5.46265 17.6897Z" fill="#CECDB7"/>
<path fill-rule="evenodd" clip-rule="evenodd" d="M4.94648 15.1113L4.93566 15.1093L4.92484 15.111L4.95025 15.0195L4.94648 15.1113Z" fill="#4FAA41"/>
</svg>
