<svg width="15" height="30" viewBox="0 0 15 30" fill="none" xmlns="http://www.w3.org/2000/svg">
<path fill-rule="evenodd" clip-rule="evenodd" d="M13.2489 9.78889C13.6437 10.9308 13.928 12.0967 14.0215 13.305C14.1376 14.8041 14.0844 16.2926 13.7684 17.7671C13.7598 17.8077 13.7416 17.8458 13.7281 17.8851C13.6289 17.8854 13.5279 17.8731 13.431 17.8881C12.6122 18.0167 11.7941 18.15 10.9761 18.2826C10.1305 18.4196 9.28371 18.5512 8.4396 18.6975C8.14052 18.7492 7.77036 18.6874 7.6496 19.1011C7.64616 19.1124 7.61173 19.1144 7.5918 19.1208L7.63263 16.6487L7.59106 10.6839L7.98508 10.6163C8.62948 10.5108 9.27387 10.4038 9.91876 10.3012C10.6883 10.179 11.4587 10.0602 12.2287 9.94089C12.5684 9.88801 12.9085 9.83956 13.2489 9.78889Z" fill="#FDFAF3"/>
<path fill-rule="evenodd" clip-rule="evenodd" d="M6.77819 26.3272C6.36253 25.9698 5.93236 25.6282 5.53392 25.2524C3.38996 23.2302 1.82177 20.8501 1.04948 17.9806C0.83673 17.1908 0.694816 16.3883 0.649315 15.5722C0.617341 15.0011 0.571101 14.4248 0.611437 13.8567C0.718918 12.3456 0.937324 10.8489 1.38053 9.3934L1.40488 9.35946C1.44792 9.41677 1.5099 9.46743 1.53179 9.53212C1.96442 10.8061 2.39385 12.0812 2.82107 13.3569C4.16348 17.3659 5.50416 21.3759 6.84878 25.384C6.8751 25.4622 6.94323 25.5264 6.99217 25.597L6.77819 26.3272Z" fill="#FDFAF3"/>
<path fill-rule="evenodd" clip-rule="evenodd" d="M13.2489 9.78889C12.9085 9.83956 12.5682 9.88801 12.2285 9.9404C11.4584 10.0597 10.6881 10.1785 9.91851 10.3007C9.27362 10.4033 8.62923 10.5103 7.98483 10.6158L7.59082 10.6834L7.58787 10.4264C7.57483 10.2151 7.55245 10.0041 7.54999 9.79283C7.53302 8.4455 7.52244 7.09818 7.50572 5.75085C7.49539 4.90748 7.4799 4.06436 7.46268 3.22123C7.4521 2.69736 7.44079 2.17323 7.41718 1.65009C7.40439 1.36897 7.35913 1.08932 7.34069 0.808198C7.33036 0.646608 7.34462 0.483788 7.34782 0.321459C7.54876 0.710801 7.74528 1.10309 7.95188 1.48949C8.27826 2.10043 8.7982 2.55052 9.26624 3.04169C11.1165 4.98274 12.4302 7.2396 13.2489 9.78889Z" fill="#FDFAF3"/>
<path fill-rule="evenodd" clip-rule="evenodd" d="M7.59156 19.1206C7.61148 19.1142 7.64616 19.1122 7.64936 19.1009C7.77012 18.6872 8.14028 18.7489 8.43935 18.6973C9.28346 18.5512 10.1303 18.4193 10.9759 18.2824C11.7939 18.1498 12.6119 18.0165 13.4307 17.8878C13.5276 17.8726 13.6287 17.8851 13.7278 17.8849C13.5748 18.4309 13.4543 18.9887 13.2603 19.5197C13.0399 20.1221 12.7733 20.7099 12.4902 21.2862C12.0664 22.1457 11.5418 22.9518 10.9277 23.6874C10.4557 24.2551 9.92958 24.7797 9.40226 25.2979C9.1108 25.5844 8.76721 25.8178 8.44747 26.0753L8.36458 26.0188L8.066 25.7635L7.75708 25.0864C7.54608 24.2965 7.43096 23.4841 7.41423 22.6667L7.41988 22.5287L7.46194 21.932C7.47596 21.7284 7.49465 21.525 7.50326 21.3208C7.53499 20.5874 7.56254 19.854 7.59156 19.1206Z" fill="#FDFAF3"/>
<path fill-rule="evenodd" clip-rule="evenodd" d="M7.59156 19.1206C7.56254 19.854 7.53499 20.5874 7.50375 21.3211C7.49514 21.5252 7.47645 21.7286 7.46243 21.9323L7.27428 22.0034C6.85641 20.7731 6.43829 19.5559 6.02927 18.3355C5.3529 16.3165 4.68465 14.2942 4.00927 12.2747C3.46377 10.6447 2.91447 9.01589 2.36139 7.3884C2.33556 7.31215 2.26128 7.25263 2.20963 7.18524L3.41382 4.97118C3.45514 5.043 3.50974 5.11015 3.53581 5.18737C4.09351 6.83577 4.64838 8.48513 5.20041 10.1354C5.91761 12.2826 6.63038 14.4315 7.34708 16.5789C7.37561 16.6647 7.42283 16.7439 7.46784 16.8401L7.63263 16.6482L7.59156 19.1206Z" fill="#FDFAF3"/>
<path fill-rule="evenodd" clip-rule="evenodd" d="M2.20988 7.18549C2.26153 7.25288 2.33556 7.3124 2.36163 7.38865C2.91472 9.01614 3.46401 10.6449 4.00951 12.275C4.6849 14.2945 5.35315 16.3167 6.02952 18.3357C6.43829 19.5559 6.85641 20.7734 7.27453 22.0036L7.46268 21.9325L7.42062 22.5292L7.3825 22.6667C7.31707 23.3199 7.26198 23.9747 7.18229 24.6264C7.1422 24.9531 7.0571 25.2738 6.99242 25.5972C6.94372 25.5266 6.87534 25.4624 6.84903 25.3842C5.50441 21.3759 4.16372 17.3662 2.82132 13.3572C2.39425 12.0813 1.96449 10.8064 1.53204 9.53236C1.51015 9.46768 1.44841 9.41701 1.40512 9.3597L2.20988 7.18549Z" fill="#FDFAF3"/>
<path fill-rule="evenodd" clip-rule="evenodd" d="M7.63239 16.6485L7.4676 16.8403C7.42259 16.7442 7.37537 16.6647 7.34683 16.5791C6.63038 14.4317 5.91736 12.2828 5.20017 10.1357C4.64814 8.48538 4.09327 6.83602 3.53556 5.18762C3.50974 5.11039 3.45514 5.043 3.41357 4.97143L4.90281 3.01242C4.94979 3.07514 5.01669 3.13097 5.04103 3.20156C5.45448 4.41189 5.86424 5.62369 6.27153 6.83624C6.65202 7.9686 7.02685 9.10268 7.41177 10.2336C7.43759 10.3093 7.52736 10.3629 7.58738 10.4269L7.59033 10.6839C7.60459 12.6717 7.61861 14.6602 7.63239 16.6485Z" fill="#FDFAF3"/>
<path fill-rule="evenodd" clip-rule="evenodd" d="M7.58787 10.4264C7.52786 10.3625 7.43808 10.3088 7.41226 10.2331C7.02734 9.10219 6.65251 7.96811 6.27202 6.83574C5.86473 5.6232 5.45497 4.41164 5.04153 3.20107C5.01718 3.13048 4.95028 3.07465 4.9033 3.01193C5.38758 2.53773 5.85686 2.04657 6.36057 1.59426C6.80845 1.19238 7.16852 0.761468 7.185 0.126419C7.18574 0.100102 7.19951 0.0737856 7.22066 0L7.34831 0.321213C7.34511 0.483788 7.3306 0.646362 7.34118 0.807952C7.35962 1.08908 7.40488 1.36872 7.41767 1.64985C7.44128 2.17299 7.45259 2.69711 7.46317 3.22099C7.48014 4.06411 7.49564 4.90724 7.50621 5.7506C7.52269 7.09793 7.53351 8.44525 7.55048 9.79258C7.55245 10.0043 7.57459 10.2151 7.58787 10.4264Z" fill="#FDFAF3"/>
<path fill-rule="evenodd" clip-rule="evenodd" d="M6.99217 25.597C7.05686 25.2735 7.14171 24.9526 7.1818 24.6262C7.26174 23.9747 7.31658 23.3197 7.38201 22.6664L7.39824 22.664L7.41423 22.6667C7.43096 23.4841 7.54608 24.2965 7.75708 25.0864C7.7138 25.1434 7.6528 25.1943 7.62993 25.2588C7.45112 25.763 7.28264 26.2711 7.10285 26.7753C7.07826 26.8442 7.00988 26.8978 6.96167 26.9583L6.77819 26.3272L6.99217 25.597Z" fill="#FDFAF3"/>
<path fill-rule="evenodd" clip-rule="evenodd" d="M6.96192 26.9586C7.01013 26.8981 7.07875 26.8444 7.1031 26.7756C7.28289 26.2714 7.45161 25.7635 7.63017 25.259C7.65305 25.1946 7.71404 25.1437 7.75757 25.0866L8.06625 25.764C8.00525 25.8505 7.92113 25.9285 7.88719 26.0249L7.29592 27.7611C7.27157 27.8307 7.18844 27.8799 7.13286 27.9387L6.96192 26.9586Z" fill="#FDFAF3"/>
<path fill-rule="evenodd" clip-rule="evenodd" d="M7.13286 27.9387C7.18869 27.8801 7.27157 27.8307 7.29592 27.7611L7.88719 26.0249C7.92089 25.9288 8.00525 25.8505 8.06625 25.764L8.36508 26.0188C8.2207 26.1614 8.14052 26.3262 8.18873 26.5345L8.09797 26.8316C8.05665 26.8826 7.99689 26.9268 7.97647 26.9851C7.77012 27.5761 7.57311 28.1704 7.36528 28.7614C7.33896 28.8364 7.26592 28.8952 7.21427 28.9611C7.18746 28.62 7.16016 28.2798 7.13286 27.9387Z" fill="#FDFAF3"/>
<path fill-rule="evenodd" clip-rule="evenodd" d="M7.21427 28.9611C7.26567 28.8949 7.33872 28.8362 7.36528 28.7614C7.57311 28.1706 7.77012 27.5764 7.97647 26.9851C7.99689 26.9271 8.05641 26.8826 8.09797 26.8316L7.97303 28.1955C7.93958 28.2341 7.89113 28.2678 7.87514 28.3128C7.73372 28.7097 7.60041 29.1097 7.4585 29.5066C7.42923 29.5885 7.37315 29.6608 7.32937 29.7373C7.29051 29.6864 7.22091 29.6372 7.21771 29.5841C7.20517 29.3772 7.21353 29.1689 7.21427 28.9611Z" fill="#FDFAF3"/>
<path fill-rule="evenodd" clip-rule="evenodd" d="M7.32937 29.7373C7.37315 29.6606 7.42923 29.5883 7.4585 29.5066C7.60066 29.1099 7.73372 28.71 7.87514 28.3128C7.89113 28.2678 7.93982 28.2343 7.97303 28.1955L7.97573 29.0907L7.67616 29.8591L7.32937 29.7373Z" fill="#FDFAF3"/>
<path fill-rule="evenodd" clip-rule="evenodd" d="M7.67616 29.8591L7.97573 29.0907L8.03747 30L7.67616 29.8591Z" fill="#FDFAF3"/>
<path fill-rule="evenodd" clip-rule="evenodd" d="M8.18873 26.5345C8.14052 26.3262 8.22046 26.1612 8.36508 26.0188L8.44796 26.0756L8.18873 26.5345Z" fill="#FDFAF3"/>
<path fill-rule="evenodd" clip-rule="evenodd" d="M7.41447 22.6669L7.39824 22.664L7.38201 22.6664L7.42013 22.5292L7.41447 22.6669Z" fill="#FDFAF3"/>
</svg>
