<svg width="59" height="35" viewBox="0 0 59 35" fill="none" xmlns="http://www.w3.org/2000/svg">
<path d="M13.958 9.11458H24.941V9.98047H14.9606V16.543H24.3486V17.4089H14.9606V24.6094H25.0778V25.4753H13.958V9.11458ZM25.9436 9.11458H27.1285L32.3239 16.3151L37.5647 9.11458L44.7653 0L32.9163 17.0898L39.0231 25.4753H37.7926L32.2783 17.819L26.7184 25.4753H25.5335L31.6858 17.0898L25.9436 9.11458ZM39.4788 9.98047V9.11458H52.0114V9.98047H46.2236V25.4753H45.221V9.98047H39.4788ZM0.194946 9.11458H1.42542L18.8343 35L11.6337 25.4753L1.24312 10.3451L1.19755 25.4753H0.194946V9.11458ZM51.9202 24.3359C52.1481 24.3359 52.2848 24.1992 52.2848 23.9714C52.2848 23.7435 52.1481 23.6068 51.9202 23.6068C51.6923 23.6068 51.5556 23.7435 51.5556 23.9714C51.5556 24.1992 51.7379 24.3359 51.9202 24.3359ZM52.9228 23.3789C52.9228 23.9714 53.3785 24.3815 54.0166 24.3815C54.7002 24.3815 55.1103 23.9714 55.1103 23.2422V20.7357H54.5634V23.2422C54.5634 23.6523 54.3811 23.8346 54.0166 23.8346C53.6976 23.8346 53.4697 23.6523 53.4697 23.3333H52.9228V23.3789ZM55.7939 23.3333C55.8395 23.9714 56.3408 24.3815 57.1611 24.3815C57.9814 24.3815 58.5283 23.9714 58.5283 23.2878C58.5283 22.7409 58.2093 22.4675 57.5257 22.2852L57.1155 22.194C56.6598 22.1029 56.4775 21.9206 56.4775 21.6927C56.4775 21.3737 56.7509 21.1458 57.2067 21.1458C57.6168 21.1458 57.8903 21.3281 57.9358 21.6927H58.4827C58.4371 21.1003 57.9358 20.6901 57.2067 20.6901C56.4319 20.6901 55.9306 21.1003 55.9306 21.7383C55.9306 22.2396 56.2041 22.5586 56.8421 22.6953L57.2978 22.7865C57.7535 22.8776 57.9814 23.0599 57.9814 23.3333C57.9814 23.6523 57.6624 23.8802 57.2067 23.8802C56.7509 23.8802 56.3864 23.6523 56.3408 23.3333H55.7939Z" fill="#F5F5F5"/>
</svg>
