<svg width="34" height="20" viewBox="0 0 34 20" fill="none" xmlns="http://www.w3.org/2000/svg">
<path d="M7.93197 5.20833H14.208V5.70313H8.50488V9.45313H13.8695V9.94792H8.50488V14.0625H14.2861V14.5573H7.93197V5.20833ZM14.7809 5.20833H15.458L18.4268 9.32292L21.4216 5.20833L25.5361 0L18.7653 9.76563L22.2549 14.5573H21.5518L18.4007 10.1823L15.2236 14.5573H14.5466L18.0622 9.76563L14.7809 5.20833ZM22.5153 5.70313V5.20833H29.6768V5.70313H26.3695V14.5573H25.7966V5.70313H22.5153ZM0.0673828 5.20833H0.770508L10.7184 20L6.60384 14.5573L0.666341 5.91146L0.6403 14.5573H0.0673828V5.20833ZM29.6247 13.9063C29.7549 13.9063 29.833 13.8281 29.833 13.6979C29.833 13.5677 29.7549 13.4896 29.6247 13.4896C29.4945 13.4896 29.4163 13.5677 29.4163 13.6979C29.4163 13.8281 29.5205 13.9063 29.6247 13.9063ZM30.1976 13.3594C30.1976 13.6979 30.458 13.9323 30.8226 13.9323C31.2132 13.9323 31.4476 13.6979 31.4476 13.2813V11.849H31.1351V13.2813C31.1351 13.5156 31.0309 13.6198 30.8226 13.6198C30.6403 13.6198 30.5101 13.5156 30.5101 13.3333H30.1976V13.3594ZM31.8382 13.3333C31.8643 13.6979 32.1507 13.9323 32.6195 13.9323C33.0882 13.9323 33.4007 13.6979 33.4007 13.3073C33.4007 12.9948 33.2184 12.8385 32.8278 12.7344L32.5934 12.6823C32.333 12.6302 32.2288 12.526 32.2288 12.3958C32.2288 12.2135 32.3851 12.0833 32.6455 12.0833C32.8799 12.0833 33.0361 12.1875 33.0622 12.3958H33.3747C33.3486 12.0573 33.0622 11.8229 32.6455 11.8229C32.2028 11.8229 31.9163 12.0573 31.9163 12.4219C31.9163 12.7083 32.0726 12.8906 32.4372 12.9687L32.6976 13.0208C32.958 13.0729 33.0882 13.1771 33.0882 13.3333C33.0882 13.5156 32.9059 13.6458 32.6455 13.6458C32.3851 13.6458 32.1768 13.5156 32.1507 13.3333H31.8382Z" fill="black"/>
</svg>
