<svg width="36" height="20" viewBox="0 0 36 20" fill="none" xmlns="http://www.w3.org/2000/svg">
<path d="M32.833 14.9476C32.7473 14.9476 32.6622 14.9251 32.5872 14.8814L31.8043 14.4182C31.6874 14.3529 31.7444 14.3296 31.7831 14.3163C31.9391 14.2619 31.9707 14.2492 32.137 14.1553C32.1544 14.1455 32.1772 14.1491 32.1952 14.1597L32.7963 14.5169C32.8075 14.5228 32.82 14.526 32.8327 14.526C32.8453 14.526 32.8578 14.5228 32.869 14.5169L35.2137 13.1636C35.2247 13.1571 35.2339 13.1478 35.2402 13.1366C35.2465 13.1255 35.2498 13.1129 35.2497 13.1001V10.3941C35.2497 10.3811 35.2464 10.3683 35.24 10.357C35.2337 10.3456 35.2245 10.3361 35.2134 10.3294L32.8696 8.9773C32.8585 8.97119 32.8461 8.96799 32.8334 8.96799C32.8208 8.96799 32.8083 8.97119 32.7972 8.9773L30.4537 10.3297C30.4426 10.3364 30.4334 10.3458 30.4269 10.3571C30.4205 10.3684 30.417 10.3811 30.4168 10.3941V13.1001C30.4168 13.1261 30.4313 13.1506 30.4537 13.1627L31.0959 13.534C31.4445 13.708 31.6581 13.503 31.6581 13.2968V10.6248C31.6581 10.5873 31.6885 10.5575 31.7261 10.5575H32.0235C32.0605 10.5575 32.0912 10.5873 32.0912 10.6248V13.2968C32.0912 13.7618 31.838 14.0285 31.397 14.0285C31.2614 14.0285 31.1547 14.0285 30.857 13.882L30.2422 13.5281C30.1674 13.4845 30.1054 13.4221 30.0622 13.347C30.0191 13.272 29.9964 13.1869 29.9964 13.1004V10.3944C29.9964 10.2186 30.0901 10.0547 30.2422 9.96722L32.5869 8.61217C32.6624 8.57103 32.7471 8.54948 32.8331 8.54948C32.9191 8.54948 33.0038 8.57103 33.0793 8.61217L35.424 9.96722C35.5759 10.055 35.6701 10.2189 35.6701 10.3944V13.1004C35.67 13.1869 35.6472 13.2719 35.604 13.347C35.5608 13.422 35.4988 13.4845 35.424 13.5281L33.0793 14.8817C33.0045 14.9251 32.9195 14.9478 32.833 14.9476ZM33.5576 13.0832C32.5311 13.0832 32.3163 12.612 32.3163 12.2171C32.3164 12.1991 32.3236 12.1819 32.3363 12.1692C32.349 12.1565 32.3663 12.1494 32.3842 12.1494H32.6873C32.7035 12.1494 32.7193 12.1551 32.7316 12.1656C32.744 12.1761 32.7521 12.1907 32.7547 12.2067C32.8002 12.5154 32.937 12.6711 33.5576 12.6711C34.0512 12.6711 34.2616 12.5595 34.2616 12.2971C34.2616 12.1459 34.2019 12.0339 33.4344 11.9586C32.7928 11.8951 32.3961 11.7536 32.3961 11.2399C32.3961 10.7669 32.7949 10.4845 33.4631 10.4845C34.2143 10.4845 34.5859 10.7453 34.6329 11.3048C34.6336 11.3143 34.6325 11.3237 34.6294 11.3327C34.6264 11.3416 34.6215 11.3498 34.6152 11.3568C34.6088 11.3636 34.6011 11.3689 34.5925 11.3726C34.584 11.3763 34.5749 11.3783 34.5656 11.3784H34.261C34.2456 11.3784 34.2307 11.3732 34.2187 11.3636C34.2067 11.354 34.1984 11.3405 34.1951 11.3255C34.1218 11.0006 33.9446 10.8969 33.4628 10.8969C32.9237 10.8969 32.861 11.0851 32.861 11.2254C32.861 11.3958 32.9349 11.4455 33.6631 11.5418C34.3836 11.6372 34.726 11.7719 34.726 12.2785C34.7263 12.7905 34.3003 13.0832 33.5576 13.0832Z" fill="#83CD29"/>
<path d="M28.0051 11.3084C28.0975 11.2543 28.1545 11.1557 28.1545 11.0484V10.353C28.1545 10.2461 28.0978 10.1474 28.0051 10.0934L25.5342 8.65884C25.4885 8.63227 25.4367 8.61823 25.3838 8.61812C25.3309 8.61802 25.279 8.63186 25.2332 8.65825L22.747 10.0937C22.7014 10.12 22.6636 10.158 22.6372 10.2036C22.6109 10.2492 22.597 10.3009 22.597 10.3536V13.2238C22.597 13.3317 22.6549 13.4315 22.7488 13.485L25.2193 14.8926C25.3103 14.9449 25.422 14.9452 25.5139 14.8944L27.008 14.0637C27.0313 14.0508 27.0507 14.0319 27.0643 14.009C27.0779 13.9862 27.0851 13.9601 27.0853 13.9335C27.0855 13.9069 27.0786 13.8807 27.0653 13.8577C27.0521 13.8346 27.0329 13.8155 27.0098 13.8023L24.5083 12.3666C24.4853 12.3535 24.4662 12.3346 24.453 12.3117C24.4397 12.2889 24.4327 12.263 24.4326 12.2366V11.3367C24.4326 11.283 24.4613 11.2336 24.5077 11.2071L25.2867 10.758C25.3094 10.7448 25.3353 10.7379 25.3616 10.7379C25.3879 10.7379 25.4137 10.7448 25.4365 10.758L26.2155 11.2071C26.2383 11.2201 26.2573 11.239 26.2705 11.2618C26.2837 11.2846 26.2907 11.3104 26.2908 11.3367V12.0446C26.2906 12.071 26.2975 12.0971 26.3107 12.12C26.3238 12.143 26.3429 12.162 26.3658 12.1752C26.3887 12.1884 26.4148 12.1953 26.4412 12.1952C26.4677 12.1951 26.4937 12.188 26.5165 12.1745L28.0051 11.3084Z" fill="#404137"/>
<path d="M25.3469 11.1737C25.3557 11.1688 25.3657 11.1662 25.3757 11.1662C25.3858 11.1662 25.3957 11.1688 25.4045 11.1737L25.8816 11.4493C25.8994 11.4596 25.9103 11.4788 25.9103 11.4992V12.0502C25.9103 12.0708 25.8994 12.0898 25.8816 12.1001L25.4045 12.3754C25.3958 12.3805 25.3859 12.3832 25.3757 12.3832C25.3656 12.3832 25.3557 12.3805 25.3469 12.3754L24.8701 12.1001C24.8613 12.0951 24.854 12.0878 24.8489 12.079C24.8438 12.0703 24.8412 12.0603 24.8412 12.0502V11.4992C24.8412 11.4788 24.8521 11.4596 24.8701 11.4493L25.3469 11.1737Z" fill="#83CD29"/>
<path d="M18.8771 12.3199C18.8771 12.3465 18.863 12.3713 18.8396 12.3849L17.9859 12.877C17.9745 12.8837 17.9615 12.8872 17.9484 12.8872C17.9352 12.8872 17.9222 12.8837 17.9108 12.877L17.0571 12.3849C17.0457 12.3783 17.0363 12.3688 17.0297 12.3574C17.0231 12.346 17.0196 12.333 17.0196 12.3199V11.3338C17.0196 11.3072 17.0341 11.2821 17.0571 11.2685L17.9108 10.7758C17.9222 10.7689 17.9352 10.7653 17.9485 10.7653C17.9618 10.7653 17.9748 10.7689 17.9862 10.7758L18.8402 11.2685C18.8515 11.2752 18.8609 11.2848 18.8674 11.2962C18.8739 11.3077 18.8774 11.3206 18.8774 11.3338L18.8771 12.3199ZM19.1078 5.01848C19.085 5.00598 19.0592 4.99961 19.0331 5.00002C19.007 5.00042 18.9815 5.00758 18.959 5.02079C18.9365 5.034 18.9178 5.05281 18.9048 5.0754C18.8917 5.09798 18.8847 5.12356 18.8845 5.14965V8.96489C18.8844 8.98329 18.8796 9.00135 18.8704 9.0173C18.8612 9.03325 18.8481 9.04655 18.8322 9.05587C18.8162 9.06502 18.7981 9.06983 18.7796 9.06983C18.7612 9.06983 18.7431 9.06502 18.7271 9.05587L18.1043 8.69695C18.0587 8.67069 18.007 8.65687 17.9544 8.65687C17.9018 8.65687 17.8501 8.67069 17.8045 8.69695L15.3177 10.1321C15.272 10.1584 15.2341 10.1964 15.2077 10.2421C15.1813 10.2877 15.1674 10.3396 15.1674 10.3923V13.2634C15.1674 13.3707 15.2247 13.4696 15.3174 13.5237L17.8042 14.9597C17.897 15.0134 18.0116 15.0134 18.1046 14.9597L20.592 13.5237C20.6376 13.4972 20.6754 13.4593 20.7018 13.4136C20.7281 13.3679 20.742 13.3161 20.7421 13.2634V6.10649C20.7421 5.99777 20.683 5.89733 20.5882 5.84416L19.1078 5.01848Z" fill="#404137"/>
<path d="M10.356 8.64289C10.4016 8.61649 10.4534 8.60259 10.5061 8.60259C10.5588 8.60259 10.6105 8.61649 10.6561 8.64289L13.1429 10.0777C13.2357 10.1315 13.293 10.2307 13.293 10.338V13.21C13.293 13.3172 13.2357 13.4164 13.1429 13.4702L10.6564 14.9062C10.6107 14.9325 10.5589 14.9463 10.5062 14.9463C10.4535 14.9463 10.4017 14.9325 10.356 14.9062L7.8701 13.4702C7.8245 13.4437 7.78665 13.4058 7.76031 13.3601C7.73398 13.3144 7.72009 13.2627 7.72003 13.21V10.3377C7.72003 10.2307 7.77734 10.1315 7.8701 10.0777L10.356 8.64289Z" fill="#83CD29"/>
<path d="M5.83382 10.314C5.83382 10.2059 5.77711 10.1067 5.68376 10.0532L3.19787 8.62251C3.15612 8.5983 3.10903 8.5848 3.0608 8.58322H3.03509C2.98687 8.58484 2.93979 8.59834 2.89802 8.62251L0.411839 10.0532C0.366103 10.0797 0.328134 10.1177 0.301742 10.1635C0.275349 10.2093 0.261463 10.2612 0.261475 10.314L0.266792 14.1662C0.266792 14.22 0.294856 14.2699 0.341827 14.2959C0.364317 14.3095 0.390116 14.3167 0.416418 14.3167C0.44272 14.3167 0.468519 14.3095 0.491009 14.2959L1.96807 13.4498C2.06142 13.3943 2.11843 13.2965 2.11843 13.1893V11.3896C2.11843 11.2821 2.17515 11.1831 2.26821 11.1294L2.89743 10.7672C2.94291 10.7405 2.99475 10.7265 3.0475 10.7267C3.0989 10.7267 3.15149 10.7397 3.19728 10.7672L3.82591 11.1294C3.91897 11.1831 3.97628 11.2821 3.97628 11.3896V13.1893C3.97628 13.2965 4.03388 13.3949 4.12664 13.4498L5.6037 14.2959C5.62648 14.3089 5.65227 14.3157 5.6785 14.3157C5.70473 14.3156 5.73049 14.3087 5.75321 14.2955C5.77592 14.2824 5.7948 14.2636 5.80796 14.2409C5.82112 14.2182 5.8281 14.1924 5.82821 14.1662L5.83382 10.314Z" fill="#404137"/>
</svg>
