<svg width="50" height="50" viewBox="0 0 50 50" fill="none" xmlns="http://www.w3.org/2000/svg">
<path fill-rule="evenodd" clip-rule="evenodd" d="M25.1557 5.47217L28.9094 7.63652C29.1057 7.74969 29.1733 8.00184 29.0601 8.19785L25.6627 14.0746C25.5116 14.3359 25.2522 14.4855 24.95 14.4855C24.6478 14.4855 24.3884 14.3359 24.2373 14.0746L20.84 8.1978C20.7267 8.00179 20.7943 7.74967 20.9906 7.6365L24.7442 5.47217C24.8751 5.39673 25.0249 5.39673 25.1557 5.47217ZM14.5568 6.81904L23.1684 21.7154C23.5461 22.3687 24.1946 22.7427 24.95 22.7427C25.7054 22.7427 26.3539 22.3687 26.7317 21.7154L35.3445 6.8169C35.5711 6.42489 35.4358 5.92058 35.0433 5.69427L25.3639 0.113169C25.1022 -0.0377231 24.8027 -0.0377231 24.541 0.113169L14.858 5.69636C14.4655 5.9227 14.3302 6.42703 14.5568 6.81904Z" fill="black" fill-opacity="0.5"/>
<path fill-rule="evenodd" clip-rule="evenodd" d="M24.7455 44.5278L20.9918 42.3635C20.7955 42.2503 20.7279 41.9982 20.8412 41.8022L24.2386 35.9254C24.3897 35.6641 24.6491 35.5145 24.9513 35.5145C25.2534 35.5145 25.5128 35.6641 25.6639 35.9254L29.0613 41.8022C29.1746 41.9982 29.1069 42.2503 28.9107 42.3635L25.157 44.5278C25.0262 44.6033 24.8764 44.6033 24.7455 44.5278ZM35.3444 43.181L26.7329 28.2846C26.3551 27.6313 25.7066 27.2573 24.9512 27.2573C24.1958 27.2573 23.5473 27.6313 23.1696 28.2846L14.5568 43.1831C14.3302 43.5751 14.4655 44.0794 14.858 44.3057L24.5373 49.8868C24.799 50.0377 25.0986 50.0377 25.3603 49.8868L35.0432 44.3036C35.4357 44.0773 35.5711 43.573 35.3444 43.181Z" fill="black" fill-opacity="0.5"/>
<path fill-rule="evenodd" clip-rule="evenodd" d="M5.47217 24.7455L7.63652 20.9918C7.74969 20.7955 8.00184 20.7279 8.19785 20.8412L14.0746 24.2386C14.3359 24.3897 14.4855 24.6491 14.4855 24.9513C14.4855 25.2534 14.3359 25.5128 14.0746 25.6639L8.1978 29.0613C8.00179 29.1746 7.74967 29.1069 7.6365 28.9107L5.47217 25.157C5.39673 25.0262 5.39673 24.8764 5.47217 24.7455ZM6.81905 35.3444L21.7154 26.7329C22.3687 26.3551 22.7427 25.7066 22.7427 24.9512C22.7427 24.1958 22.3687 23.5473 21.7154 23.1696L6.8169 14.5568C6.42489 14.3302 5.92058 14.4655 5.69427 14.858L0.113169 24.5373C-0.0377231 24.799 -0.0377231 25.0986 0.113169 25.3603L5.69636 35.0432C5.9227 35.4357 6.42703 35.5711 6.81905 35.3444Z" fill="black" fill-opacity="0.5"/>
<path fill-rule="evenodd" clip-rule="evenodd" d="M44.5278 25.1557L42.3635 28.9094C42.2503 29.1057 41.9982 29.1733 41.8022 29.0601L35.9254 25.6627C35.6641 25.5116 35.5145 25.2522 35.5145 24.95C35.5145 24.6479 35.6641 24.3884 35.9254 24.2373L41.8022 20.84C41.9982 20.7267 42.2503 20.7943 42.3635 20.9906L44.5278 24.7442C44.6033 24.8751 44.6033 25.0249 44.5278 25.1557ZM43.181 14.5568L28.2846 23.1684C27.6313 23.5461 27.2573 24.1946 27.2573 24.95C27.2573 25.7054 27.6313 26.354 28.2846 26.7317L43.1831 35.3445C43.5751 35.5711 44.0794 35.4358 44.3057 35.0433L49.8868 25.3639C50.0377 25.1022 50.0377 24.8027 49.8868 24.541L44.3036 14.858C44.0773 14.4655 43.573 14.3302 43.181 14.5568Z" fill="black" fill-opacity="0.5"/>
</svg>
