<svg width="34" height="30" viewBox="0 0 34 30" fill="none" xmlns="http://www.w3.org/2000/svg">
<path d="M16.7979 18.059C18.4873 18.059 19.8569 16.6895 19.8569 15C19.8569 13.3105 18.4873 11.941 16.7979 11.941C15.1084 11.941 13.7388 13.3105 13.7388 15C13.7388 16.6895 15.1084 18.059 16.7979 18.059Z" fill="#FDFAF3"/>
<path d="M28.4168 9.95528C27.8265 9.74061 27.2093 9.52594 26.5653 9.3381C26.7263 8.6941 26.8605 8.05009 26.9678 7.43292C27.5313 3.89088 26.9141 1.39535 25.1968 0.429338C24.6869 0.134168 24.1234 0 23.4794 0C21.6011 0 19.2129 1.39535 16.7979 3.72987C14.3828 1.39535 11.9946 0 10.1163 0C9.47227 0 8.90877 0.134168 8.39893 0.429338C6.68157 1.42218 6.0644 3.91771 6.62791 7.43292C6.73524 8.05009 6.86941 8.6941 7.03041 9.3381C6.3864 9.52594 5.76923 9.71377 5.17889 9.95528C1.82469 11.2433 0 13.0143 0 15C0 16.9857 1.85152 18.7567 5.17889 20.0447C5.76923 20.2594 6.3864 20.4741 7.03041 20.6619C6.86941 21.3059 6.73524 21.9499 6.62791 22.5671C6.0644 26.1091 6.68157 28.6047 8.39893 29.5707C8.90877 29.8658 9.47227 30 10.1163 30C12.0215 30 14.4097 28.6046 16.7979 26.2701C19.2129 28.6046 21.6011 30 23.4794 30C24.1234 30 24.6869 29.8658 25.1968 29.5707C26.9141 28.5778 27.5313 26.0823 26.9678 22.5671C26.8605 21.9499 26.7263 21.3059 26.5653 20.6619C27.2093 20.4741 27.8265 20.2862 28.4168 20.0447C31.771 18.7567 33.5957 16.9857 33.5957 15C33.5957 13.0143 31.771 11.2433 28.4168 9.95528ZM24.4454 1.77102C25.5456 2.41503 25.9213 4.40072 25.4651 7.21825C25.3846 7.78175 25.2504 8.37209 25.0894 8.98927C23.6941 8.66726 22.2182 8.45259 20.6619 8.31842C19.7496 7.03041 18.8104 5.87656 17.8712 4.83005C19.8569 2.8712 21.8694 1.52952 23.5063 1.52952C23.8551 1.52952 24.1771 1.61002 24.4454 1.77102ZM21.4401 17.6834C20.9571 18.542 20.3936 19.4007 19.8032 20.2594C18.8104 20.3399 17.8175 20.3667 16.7979 20.3667C15.7513 20.3667 14.7585 20.3399 13.7925 20.2594C13.2021 19.4007 12.6655 18.542 12.1825 17.6834C11.6726 16.7979 11.1896 15.8855 10.7603 15C11.1896 14.1145 11.6726 13.2021 12.1825 12.3166C12.6655 11.458 13.229 10.5993 13.8193 9.74061C14.8122 9.66011 15.805 9.63327 16.8247 9.63327C17.8712 9.63327 18.864 9.66011 19.8301 9.74061C20.4204 10.5993 20.9571 11.458 21.4401 12.3166C21.9499 13.2021 22.4329 14.1145 22.8623 15C22.4061 15.8855 21.9499 16.771 21.4401 17.6834ZM23.6673 16.7979C24.0698 17.737 24.3918 18.6494 24.6869 19.5617C23.7746 19.7764 22.8086 19.9374 21.7889 20.0716C22.1109 19.5617 22.4597 19.025 22.7549 18.4615C23.0769 17.898 23.3721 17.3345 23.6673 16.7979ZM16.7979 24.0698C16.1538 23.3721 15.5367 22.6208 14.9463 21.8426C15.5635 21.8694 16.1807 21.8962 16.7979 21.8962C17.415 21.8962 18.0322 21.8694 18.6494 21.8426C18.059 22.6208 17.4419 23.3721 16.7979 24.0698ZM11.8068 20.0447C10.7871 19.9106 9.82111 19.7496 8.90876 19.5349C9.20393 18.6494 9.52594 17.7102 9.92844 16.771C10.2236 17.3077 10.5188 17.8712 10.8408 18.4079C11.1628 18.9982 11.4848 19.508 11.8068 20.0447ZM9.92844 13.2021C9.52594 12.263 9.20393 11.3506 8.90876 10.4383C9.82111 10.2236 10.7871 10.0626 11.8068 9.92844C11.4848 10.4383 11.136 10.975 10.8408 11.5385C10.5188 12.102 10.2236 12.6655 9.92844 13.2021ZM16.7979 5.93023C17.4419 6.62791 18.059 7.37925 18.6494 8.15742C18.0322 8.13059 17.415 8.10376 16.7979 8.10376C16.1807 8.10376 15.5635 8.13059 14.9463 8.15742C15.5367 7.37925 16.1538 6.62791 16.7979 5.93023ZM22.7549 11.5653L21.7889 9.95528C22.8086 10.0894 23.7746 10.2504 24.6869 10.4651C24.3918 11.3506 24.0698 12.2898 23.6673 13.229C23.3721 12.6655 23.0769 12.102 22.7549 11.5653ZM8.13059 7.21825C7.67442 4.40072 8.05009 2.41503 9.15027 1.77102C9.4186 1.61002 9.74061 1.52952 10.0894 1.52952C11.6995 1.52952 13.712 2.84436 15.7245 4.83005C14.7853 5.84973 13.8462 7.03041 12.9338 8.31842C11.3775 8.45259 9.90161 8.6941 8.50626 8.98927C8.34526 8.37209 8.23792 7.78175 8.13059 7.21825ZM1.50268 15C1.50268 13.7388 3.0322 12.3971 5.71556 11.4043C6.25224 11.1896 6.84258 11.0018 7.43292 10.8408C7.86225 12.1825 8.39893 13.6047 9.04293 15.0268C8.39893 16.449 7.83542 17.8444 7.43292 19.186C3.72987 18.1127 1.50268 16.5027 1.50268 15ZM9.15027 28.229C8.05009 27.585 7.67442 25.5993 8.13059 22.7818C8.21109 22.2182 8.34526 21.6279 8.50626 21.0107C9.90161 21.3327 11.3775 21.5474 12.9338 21.6816C13.8462 22.9696 14.7853 24.1234 15.7245 25.1699C13.7388 27.1288 11.7263 28.4705 10.0894 28.4705C9.74061 28.4705 9.4186 28.39 9.15027 28.229ZM25.4651 22.7818C25.9213 25.5993 25.5456 27.585 24.4454 28.229C24.1771 28.39 23.8551 28.4705 23.5063 28.4705C21.8962 28.4705 19.8837 27.1556 17.8712 25.1699C18.8104 24.1503 19.7496 22.9696 20.6619 21.6816C22.2182 21.5474 23.6941 21.3059 25.0894 21.0107C25.2504 21.6279 25.3578 22.2182 25.4651 22.7818ZM27.8801 18.5957C27.3435 18.8104 26.7531 18.9982 26.1628 19.1592C25.7335 17.8175 25.1968 16.3953 24.5528 14.9732C25.1968 13.551 25.7603 12.1556 26.1628 10.814C29.8658 11.8873 32.093 13.4973 32.093 15C32.093 16.2612 30.5367 17.6029 27.8801 18.5957Z" fill="#FDFAF3"/>
</svg>
