<svg width="24" height="20" viewBox="0 0 24 20" fill="none" xmlns="http://www.w3.org/2000/svg">
<path d="M11.8687 12.0394C12.995 12.0394 13.9081 11.1263 13.9081 10C13.9081 8.87369 12.995 7.96064 11.8687 7.96064C10.7424 7.96064 9.82938 8.87369 9.82938 10C9.82938 11.1263 10.7424 12.0394 11.8687 12.0394Z" fill="#61DAFB"/>
<path d="M19.6147 6.63685C19.2211 6.49374 18.8097 6.35063 18.3804 6.2254C18.4877 5.79606 18.5771 5.36673 18.6487 4.95528C19.0244 2.59392 18.6129 0.930232 17.468 0.286225C17.1281 0.0894453 16.7525 0 16.3231 0C15.0709 0 13.4788 0.930232 11.8687 2.48658C10.2587 0.930232 8.66659 0 7.41435 0C6.98501 0 6.60934 0.0894453 6.26945 0.286225C5.12455 0.948122 4.7131 2.61181 5.08877 4.95528C5.16033 5.36673 5.24977 5.79606 5.35711 6.2254C4.92777 6.35063 4.51632 6.47585 4.12276 6.63685C1.88662 7.49553 0.670166 8.67621 0.670166 10C0.670166 11.3238 1.90451 12.5045 4.12276 13.3631C4.51632 13.5063 4.92777 13.6494 5.35711 13.7746C5.24977 14.2039 5.16033 14.6333 5.08877 15.0447C4.7131 17.4061 5.12455 19.0698 6.26945 19.7138C6.60934 19.9106 6.98501 20 7.41435 20C8.68448 20 10.2766 19.0698 11.8687 17.5134C13.4788 19.0698 15.0709 20 16.3231 20C16.7525 20 17.1281 19.9106 17.468 19.7138C18.6129 19.0519 19.0244 17.3882 18.6487 15.0447C18.5771 14.6333 18.4877 14.2039 18.3804 13.7746C18.8097 13.6494 19.2211 13.5242 19.6147 13.3631C21.8508 12.5045 23.0673 11.3238 23.0673 10C23.0673 8.67621 21.8508 7.49553 19.6147 6.63685ZM16.9671 1.18068C17.7006 1.61002 17.951 2.93381 17.6469 4.81216C17.5932 5.18784 17.5038 5.5814 17.3965 5.99284C16.4662 5.77818 15.4823 5.63506 14.4448 5.54562C13.8365 4.68694 13.2104 3.91771 12.5843 3.22004C13.9081 1.91413 15.2498 1.01968 16.341 1.01968C16.5736 1.01968 16.7882 1.07335 16.9671 1.18068ZM14.9635 11.7889C14.6415 12.3614 14.2659 12.9338 13.8723 13.5063C13.2104 13.5599 12.5485 13.5778 11.8687 13.5778C11.1711 13.5778 10.5092 13.5599 9.86516 13.5063C9.4716 12.9338 9.11381 12.3614 8.79181 11.7889C8.45192 11.1986 8.12991 10.5903 7.84369 10C8.12991 9.40966 8.45192 8.80143 8.79181 8.21109C9.11381 7.63864 9.48949 7.06619 9.88305 6.49374C10.5449 6.44007 11.2068 6.42218 11.8866 6.42218C12.5843 6.42218 13.2462 6.44007 13.8902 6.49374C14.2838 7.06619 14.6415 7.63864 14.9635 8.21109C15.3034 8.80143 15.6254 9.40966 15.9117 10C15.6076 10.5903 15.3034 11.1807 14.9635 11.7889ZM16.4483 11.1986C16.7167 11.8247 16.9313 12.4329 17.1281 13.0411C16.5199 13.1843 15.8759 13.2916 15.1961 13.381C15.4108 13.0411 15.6433 12.6834 15.8401 12.3077C16.0548 11.932 16.2516 11.5563 16.4483 11.1986ZM11.8687 16.0465C11.4394 15.5814 11.0279 15.0805 10.6344 14.5617C11.0458 14.5796 11.4573 14.5975 11.8687 14.5975C12.2802 14.5975 12.6916 14.5796 13.1031 14.5617C12.7095 15.0805 12.2981 15.5814 11.8687 16.0465ZM8.54136 13.3631C7.86158 13.2737 7.21757 13.1664 6.60934 13.0233C6.80612 12.4329 7.02079 11.8068 7.28913 11.1807C7.48591 11.5385 7.68269 11.9141 7.89736 12.2719C8.11203 12.6655 8.32669 13.0054 8.54136 13.3631ZM7.28913 8.80143C7.02079 8.17531 6.80612 7.56708 6.60934 6.95886C7.21757 6.81574 7.86158 6.70841 8.54136 6.61896C8.32669 6.95885 8.09414 7.31664 7.89736 7.69231C7.68269 8.06798 7.48591 8.44365 7.28913 8.80143ZM11.8687 3.95349C12.2981 4.4186 12.7095 4.9195 13.1031 5.43828C12.6916 5.42039 12.2802 5.4025 11.8687 5.4025C11.4573 5.4025 11.0458 5.42039 10.6344 5.43828C11.0279 4.9195 11.4394 4.4186 11.8687 3.95349ZM15.8401 7.7102L15.1961 6.63685C15.8759 6.7263 16.5199 6.83363 17.1281 6.97674C16.9313 7.56708 16.7167 8.1932 16.4483 8.81932C16.2516 8.44365 16.0548 8.06798 15.8401 7.7102ZM6.09056 4.81216C5.78644 2.93381 6.03689 1.61002 6.77034 1.18068C6.94923 1.07335 7.1639 1.01968 7.39646 1.01968C8.46981 1.01968 9.81149 1.89624 11.1532 3.22004C10.5271 3.89982 9.90093 4.68694 9.2927 5.54562C8.25514 5.63506 7.27124 5.79606 6.34101 5.99284C6.23367 5.5814 6.16212 5.18784 6.09056 4.81216ZM1.67195 10C1.67195 9.15921 2.69163 8.26476 4.48054 7.60286C4.83832 7.45975 5.23188 7.33453 5.62544 7.22719C5.91167 8.12165 6.26945 9.06977 6.69879 10.0179C6.26945 10.966 5.89378 11.8962 5.62544 12.7907C3.15675 12.0751 1.67195 11.0018 1.67195 10ZM6.77034 18.8193C6.03689 18.39 5.78644 17.0662 6.09056 15.1878C6.14423 14.8122 6.23367 14.4186 6.34101 14.0072C7.27124 14.2218 8.25514 14.3649 9.2927 14.4544C9.90093 15.3131 10.5271 16.0823 11.1532 16.78C9.82938 18.0859 8.4877 18.9803 7.39646 18.9803C7.1639 18.9803 6.94923 18.9267 6.77034 18.8193ZM17.6469 15.1878C17.951 17.0662 17.7006 18.39 16.9671 18.8193C16.7882 18.9267 16.5736 18.9803 16.341 18.9803C15.2677 18.9803 13.926 18.1038 12.5843 16.78C13.2104 16.1002 13.8365 15.3131 14.4448 14.4544C15.4823 14.3649 16.4662 14.2039 17.3965 14.0072C17.5038 14.4186 17.5754 14.8122 17.6469 15.1878ZM19.2569 12.3971C18.8991 12.5403 18.5056 12.6655 18.112 12.7728C17.8258 11.8784 17.468 10.9302 17.0387 9.98211C17.468 9.03399 17.8437 8.10376 18.112 7.2093C20.5807 7.92487 22.0655 8.99821 22.0655 10C22.0655 10.8408 21.0279 11.7352 19.2569 12.3971Z" fill="#61DAFB"/>
</svg>
