<svg width="28" height="20" viewBox="0 0 28 20" fill="none" xmlns="http://www.w3.org/2000/svg">
<path fill-rule="evenodd" clip-rule="evenodd" d="M0.421875 8.33976C0.421875 8.48949 0.465964 8.58831 0.49067 8.68437C0.651689 9.30907 0.997795 9.84516 1.40844 10.3342C1.9933 11.0311 2.70958 11.5921 3.44332 12.1197C4.07973 12.5772 4.72913 13.0244 5.3681 13.4785C5.47778 13.5565 5.58151 13.6461 5.70057 13.7418C5.59812 13.7971 5.51293 13.8459 5.42432 13.8909C4.5811 14.3185 3.76983 14.798 3.02203 15.3788C2.57135 15.729 2.13558 16.101 1.82781 16.5873C1.33261 17.3694 1.15732 18.2026 1.52643 19.0922C1.6342 19.3521 1.79863 19.5766 2.03057 19.7425C2.10576 19.7962 2.1901 19.8494 2.27807 19.8703C2.50341 19.9233 2.73301 19.958 2.96112 20L3.60711 19.9996C4.32147 19.9359 4.97172 19.6912 5.55936 19.2856C6.47776 18.6518 7.09649 17.802 7.36251 16.7113C7.55591 15.9185 7.56379 15.1249 7.33589 14.3358C7.31408 14.2627 7.28892 14.1906 7.26049 14.1198C7.2328 14.0489 7.20022 13.9799 7.16188 13.8915L8.62639 13.0493L8.64832 13.0681C8.6217 13.1552 8.59337 13.2421 8.5693 13.3301C8.39529 13.9656 8.27964 14.6123 8.32117 15.2719C8.36548 15.9747 8.56164 16.6327 8.97313 17.2199C9.30582 17.6948 10.0986 17.7125 10.4521 17.2358C10.5776 17.0665 10.6992 16.8895 10.7906 16.7006C11.0293 16.2075 11.2504 15.7057 11.4785 15.2073L11.5183 15.1162C11.5019 15.3522 11.4828 15.5594 11.474 15.7669C11.4604 16.0908 11.4794 16.4129 11.5901 16.7211C11.6849 16.9847 11.8461 17.1817 12.1481 17.2165C12.3547 17.2401 12.5194 17.1455 12.6712 17.0256C12.9065 16.8397 13.1015 16.6079 13.2444 16.3443C13.6493 15.6007 14.065 14.8617 14.432 14.0994C14.829 13.2749 15.1762 12.4264 15.5449 11.5878L15.6058 11.4392C15.6929 11.7814 15.7536 12.1167 15.8654 12.434C15.9953 12.8023 16.1562 13.1618 16.3312 13.5113C16.4141 13.6764 16.4045 13.7835 16.2897 13.922C15.8092 14.5013 15.337 15.0876 14.8644 15.6734C14.7598 15.8026 14.6556 15.9343 14.5685 16.0755C14.5157 16.1647 14.4809 16.2634 14.4663 16.366C14.4516 16.4605 14.4741 16.557 14.529 16.6352C14.584 16.7135 14.667 16.7674 14.7609 16.7858C14.9502 16.8266 15.1444 16.8404 15.3376 16.8269C15.9973 16.7783 16.5962 16.5468 17.1257 16.1545C17.8117 15.6463 18.0319 14.9528 17.8658 14.1309C17.8209 13.9079 17.7414 13.6911 17.6641 13.4762C17.6294 13.3793 17.627 13.3113 17.6903 13.221C18.2387 12.4379 18.7073 11.607 19.1431 10.757C19.1603 10.7235 19.178 10.6901 19.2083 10.6543C19.3495 11.3891 19.562 12.0973 19.9429 12.7399C19.7486 12.9271 19.5563 13.0968 19.3823 13.2838C18.9991 13.6958 18.6669 14.143 18.4935 14.6885C18.4189 14.9236 18.3616 15.1626 18.3949 15.4137C18.4464 15.8037 18.7659 16.0572 19.1495 15.9683C19.9703 15.7784 20.679 15.3916 21.1967 14.7064C21.5452 14.2451 21.5769 13.7305 21.431 13.1914C21.391 13.0449 21.3435 12.9007 21.2924 12.7326C21.4949 12.6698 21.6923 12.5944 21.8966 12.5478C22.9571 12.3058 24.006 12.348 25.028 12.7309C25.6245 12.9546 26.1065 13.3288 26.3924 13.9175C26.7414 14.6372 26.5485 15.32 25.8701 15.775C25.8068 15.8173 25.7344 15.8508 25.682 15.9038C25.6653 15.9233 25.6527 15.946 25.6452 15.9706C25.6377 15.9951 25.6354 16.021 25.6384 16.0465C25.6428 16.0727 25.7121 16.1055 25.7519 16.1051C25.9749 16.1034 26.1557 15.9865 26.3293 15.8663C26.7642 15.5654 27.0816 15.1605 27.15 14.6274L27.1634 14.5873L27.147 14.2402C27.1404 14.2201 27.1519 14.2003 27.1504 14.1852C27.0579 13.4089 26.6433 12.8068 26.0401 12.3348C25.3415 11.7885 24.5166 11.5635 23.6442 11.528C22.9366 11.4975 22.23 11.6063 21.5643 11.8481C21.3733 11.9173 21.1839 11.9993 20.9918 12.0766C20.9661 12.03 20.9384 11.9853 20.9156 11.939C20.7184 11.5352 20.4794 11.1493 20.4266 10.6862C20.3891 10.3574 20.3431 10.029 20.4212 9.70373C20.4964 9.39085 20.5944 9.0833 20.6866 8.77468C20.7341 8.61579 20.7007 8.52676 20.549 8.4552C20.4962 8.42885 20.4398 8.41034 20.3816 8.40025C20.0089 8.34615 19.6413 8.37703 19.2803 8.48203C19.1525 8.51931 19.0596 8.59087 19.0313 8.7323C19.0151 8.81344 18.9821 8.89118 18.9591 8.97127C18.8647 9.30417 18.7978 9.64346 18.6453 9.9606C18.2632 10.7561 17.827 11.5216 17.3806 12.2815C17.3323 12.3635 17.2814 12.444 17.2205 12.5435C17.0637 12.2155 16.8965 11.9212 16.8458 11.5761C16.7885 11.1859 16.7434 10.7964 16.8405 10.4092C16.9127 10.1203 17.007 9.83685 17.0939 9.55187C17.135 9.41641 17.1161 9.34527 16.9934 9.27392C16.9314 9.23793 16.8614 9.20598 16.7915 9.19554C16.4093 9.13733 16.0188 9.16927 15.6512 9.28883C15.5355 9.32632 15.4748 9.40108 15.4394 9.52035C15.3355 9.87221 15.2469 10.2326 15.101 10.5672C14.5102 11.9218 13.9023 13.2694 13.2951 14.6167C13.1684 14.8981 13.0199 15.1696 12.877 15.4435C12.8408 15.513 12.788 15.5741 12.7428 15.6393C12.7066 15.5965 12.6925 15.5671 12.6928 15.5377C12.6938 15.3645 12.6732 15.1863 12.7062 15.0188C12.8075 14.5125 12.9196 14.0084 13.0423 13.5068C13.1424 13.0924 13.2589 12.6817 13.3698 12.27C13.4071 12.1322 13.4078 12.0034 13.3087 11.8875C13.1424 11.6935 12.7948 11.6509 12.5886 11.8004L12.4974 11.8519L12.5151 11.705C12.5586 11.39 12.5673 11.076 12.4808 10.7657C12.3731 10.3789 12.097 10.1563 11.6958 10.1687C11.5088 10.1744 11.3124 10.2064 11.1392 10.2745C10.411 10.5599 9.85107 11.0654 9.3744 11.6734C9.33021 11.7299 9.27545 11.7772 9.21317 11.8127C8.59699 12.1544 7.9789 12.4917 7.36102 12.8304L6.67329 13.2072C6.48884 13.0312 6.32122 12.8487 6.13102 12.6939C5.5502 12.2202 4.96001 11.7582 4.37515 11.2899C3.85673 10.8747 3.35451 10.4424 2.97028 9.89265C2.68445 9.48372 2.50021 9.03623 2.48253 8.5306C2.46017 7.88631 2.64291 7.29761 2.97092 6.74959C3.3905 6.04843 3.9628 5.48572 4.59197 4.97604C5.25755 4.43718 5.97745 3.97968 6.72355 3.56201C7.76741 2.97779 8.84108 2.46065 9.99228 2.11923C11.1727 1.76908 12.3703 1.56866 13.6056 1.70838C14.0912 1.76333 14.5628 1.87451 14.9958 2.11199C15.3274 2.29367 15.5994 2.53158 15.7259 2.90345C15.8507 3.26937 15.8469 3.64018 15.7604 4.01184C15.5847 4.76454 15.1726 5.38498 14.6539 5.93938C13.8033 6.8482 12.7656 7.46693 11.5974 7.87566C10.9256 8.11097 10.2268 8.26005 9.51753 8.31931C8.93628 8.36809 8.36718 8.31654 7.81682 8.11442C7.4524 7.98045 7.13504 7.77555 6.87988 7.47822C6.83431 7.42497 6.77595 7.36726 6.69096 7.41709C6.60769 7.46608 6.59299 7.54531 6.62089 7.62561C6.66754 7.75894 6.71056 7.89781 6.78319 8.01708C6.96572 8.31633 7.23195 8.53336 7.52502 8.71952C8.08795 9.07755 8.71712 9.19789 9.3695 9.22579C10.3595 9.2686 11.3254 9.12079 12.2776 8.85519C13.6371 8.47607 14.8192 7.80644 15.7672 6.75002C16.5566 5.87038 17.1203 4.87764 17.2411 3.67894C17.3001 3.09386 17.2373 2.52071 16.9634 1.98697C16.6663 1.4087 16.1938 0.97868 15.629 0.682414C14.8064 0.251113 13.9187 0 13.0024 0H12.0845C10.9748 0 9.90197 0.317991 8.85918 0.697323C8.06985 0.984644 7.29585 1.32372 6.54443 1.69901C4.90804 2.51667 3.38411 3.50259 2.13238 4.85826C1.50875 5.53364 0.980756 6.27889 0.677035 7.1564C0.585366 7.41839 0.506397 7.68465 0.440405 7.95425M6.36978 15.6246C6.29885 16.5743 5.8684 17.3443 5.16491 17.9679C4.76917 18.3185 4.3153 18.5681 3.78666 18.6558C3.59497 18.6876 3.39881 18.6952 3.21287 18.6158C2.9477 18.5025 2.88828 18.2671 2.88316 18.0164C2.87528 17.6169 3.01522 17.2556 3.20712 16.9119C3.45759 16.4638 3.82478 16.1221 4.2169 15.8031C4.83456 15.3002 5.50462 14.8747 6.19087 14.473L6.24262 14.4517C6.34869 14.8436 6.39917 15.2306 6.36978 15.6246ZM11.7281 11.4971C11.6781 11.8004 11.6155 12.1039 11.5269 12.3978C11.2206 13.4153 10.8272 14.4012 10.4019 15.3739C10.3233 15.5539 10.2089 15.7181 10.1094 15.8887C10.0925 15.9149 10.0722 15.9388 10.0491 15.9598C9.92604 16.0814 9.80932 16.0751 9.74713 15.916C9.67471 15.7311 9.6302 15.5332 9.59186 15.3375C9.56609 15.2061 9.57227 15.068 9.56417 14.9334C9.57248 13.9763 9.86449 13.1064 10.3599 12.2966C10.5642 11.9627 10.7865 11.6445 11.1262 11.4332C11.2319 11.3675 11.3462 11.3169 11.4659 11.2828C11.647 11.2319 11.7582 11.3156 11.7281 11.4971ZM15.3839 16.1547L16.6978 14.6206C16.7525 15.1903 15.7841 16.3277 15.3839 16.1547ZM19.5804 15.1224C19.4875 15.1756 19.3863 15.2139 19.2911 15.2631C19.204 15.3083 19.1753 15.2627 19.1727 15.1877C19.1714 15.1358 19.1781 15.0841 19.1925 15.0342C19.3699 14.4084 19.6964 13.8743 20.1823 13.4398L20.2163 13.4223C20.4474 14.0687 20.1803 14.7786 19.5804 15.1224Z" fill="#CB6699"/>
</svg>
