<svg width="50" height="49" viewBox="0 0 50 49" fill="none" xmlns="http://www.w3.org/2000/svg">
<path d="M44.1229 31.759L49.4836 34.4394C50.1721 34.7836 50.1721 35.7661 49.4837 36.1103L25.8356 47.9344C25.3096 48.1973 24.6906 48.1973 24.1646 47.9344L0.516566 36.1103C-0.171903 35.7661 -0.171904 34.7836 0.516565 34.4394L5.87731 31.759L22.4937 40.0672C24.0715 40.8561 25.9287 40.8561 27.5065 40.0672L44.1229 31.759Z" fill="url(#paint0_linear_182_239)"/>
<path d="M24.1644 0.197229C24.6904 -0.0657427 25.3094 -0.0657431 25.8354 0.197229L49.4834 12.0213C50.1719 12.3655 50.1719 13.348 49.4834 13.6922L25.8354 25.5162C25.3094 25.7792 24.6904 25.7792 24.1644 25.5162L0.516352 13.6922C-0.172116 13.348 -0.172118 12.3655 0.516351 12.0213L24.1644 0.197229Z" fill="url(#paint1_linear_182_239)"/>
<path d="M44.1229 20.5499L49.4836 23.2303C50.1721 23.5745 50.1721 24.557 49.4837 24.9013L25.8356 36.7253C25.3096 36.9883 24.6906 36.9883 24.1646 36.7253L0.516566 24.9013C-0.171903 24.557 -0.171904 23.5746 0.516565 23.2303L5.87731 20.5499L22.4937 28.8581C24.0715 29.647 25.9287 29.647 27.5065 28.8581L44.1229 20.5499Z" fill="url(#paint2_linear_182_239)"/>
<defs>
<linearGradient id="paint0_linear_182_239" x1="25" y1="0" x2="25" y2="48.1316" gradientUnits="userSpaceOnUse">
<stop stop-color="#9022E5"/>
<stop offset="1" stop-color="#DB8BDD"/>
</linearGradient>
<linearGradient id="paint1_linear_182_239" x1="25" y1="0" x2="25" y2="48.1316" gradientUnits="userSpaceOnUse">
<stop stop-color="#9022E5"/>
<stop offset="1" stop-color="#DB8BDD"/>
</linearGradient>
<linearGradient id="paint2_linear_182_239" x1="25" y1="0" x2="25" y2="48.1316" gradientUnits="userSpaceOnUse">
<stop stop-color="#9022E5"/>
<stop offset="1" stop-color="#DB8BDD"/>
</linearGradient>
</defs>
</svg>
