<svg width="21" height="20" viewBox="0 0 21 20" fill="none" xmlns="http://www.w3.org/2000/svg">
<path d="M0.261719 20H20.2617V0H0.261719V20ZM16.3785 9.2C16.8575 9.31116 17.2929 9.5617 17.6297 9.92C17.8151 10.113 17.9763 10.328 18.1097 10.56C18.1097 10.5856 17.2457 11.1696 16.7193 11.496C16.7001 11.5088 16.6233 11.4256 16.5385 11.2992C16.4424 11.1334 16.3059 10.9946 16.1416 10.8959C15.9774 10.7971 15.7908 10.7415 15.5993 10.7344C14.9929 10.6928 14.6025 11.0112 14.6057 11.5344C14.6007 11.6647 14.6305 11.7939 14.6921 11.9088C14.8249 12.1856 15.0729 12.3504 15.8505 12.6864C17.2825 13.3024 17.8953 13.7088 18.2761 14.2864C18.7017 14.9264 18.7961 15.96 18.5081 16.7248C18.1881 17.5568 17.4041 18.1216 16.2953 18.3088C15.7889 18.3668 15.2772 18.3614 14.7721 18.2928C14.0013 18.1677 13.2902 17.8007 12.7417 17.2448C12.5577 17.0416 12.1993 16.512 12.2217 16.4736C12.2801 16.4302 12.3416 16.3912 12.4057 16.3568L13.1417 15.9344L13.7161 15.6016L13.8361 15.7792C14.0386 16.0689 14.2964 16.3157 14.5945 16.5056C15.2345 16.8416 16.1081 16.7952 16.5401 16.4064C16.6852 16.2639 16.7756 16.0751 16.7958 15.8728C16.816 15.6705 16.7646 15.4675 16.6505 15.2992C16.4905 15.0768 16.1705 14.8896 15.2761 14.4992C14.2441 14.0544 13.7993 13.7792 13.3929 13.3408C13.1392 13.0515 12.9519 12.7102 12.8441 12.3408C12.7637 11.9188 12.7518 11.4866 12.8089 11.0608C13.0217 10.064 13.7689 9.368 14.8601 9.1616C15.3655 9.09907 15.8774 9.1131 16.3785 9.2032V9.2ZM11.6841 10.0384V10.8576H9.08732V18.2544H7.24572V10.856H4.64252V10.056C4.63553 9.7806 4.64301 9.50502 4.66492 9.2304C4.67452 9.2176 6.26492 9.2112 8.18492 9.2144H11.6745L11.6841 10.0384Z" fill="#007ACC"/>
</svg>
