<svg width="30" height="30" viewBox="0 0 30 30" fill="none" xmlns="http://www.w3.org/2000/svg">
<path d="M0 30H30V0H0V30ZM24.1752 13.8C24.8937 13.9667 25.5468 14.3425 26.052 14.88C26.3301 15.1695 26.5719 15.4919 26.772 15.84C26.772 15.8784 25.476 16.7544 24.6864 17.244C24.6576 17.2632 24.5424 17.1384 24.4152 16.9488C24.2711 16.7001 24.0662 16.4919 23.8199 16.3438C23.5735 16.1956 23.2937 16.1123 23.0064 16.1016C22.0968 16.0392 21.5112 16.5168 21.516 17.3016C21.5085 17.497 21.5532 17.6909 21.6456 17.8632C21.8448 18.2784 22.2168 18.5256 23.3832 19.0296C25.5312 19.9536 26.4504 20.5632 27.0216 21.4296C27.66 22.3896 27.8016 23.94 27.3696 25.0872C26.8896 26.3352 25.7136 27.1824 24.0504 27.4632C23.2908 27.5502 22.5232 27.5421 21.7656 27.4392C20.6093 27.2516 19.5427 26.7011 18.72 25.8672C18.444 25.5624 17.9064 24.768 17.94 24.7104C18.0276 24.6454 18.1199 24.5868 18.216 24.5352L19.32 23.9016L20.1816 23.4024L20.3616 23.6688C20.6654 24.1033 21.052 24.4736 21.4992 24.7584C22.4592 25.2624 23.7696 25.1928 24.4176 24.6096C24.6352 24.3959 24.7709 24.1127 24.8012 23.8092C24.8314 23.5057 24.7543 23.2013 24.5832 22.9488C24.3432 22.6152 23.8632 22.3344 22.5216 21.7488C20.9736 21.0816 20.3064 20.6688 19.6968 20.0112C19.3162 19.5773 19.0353 19.0653 18.8736 18.5112C18.753 17.8782 18.7352 17.2299 18.8208 16.5912C19.14 15.096 20.2608 14.052 21.8976 13.7424C22.6556 13.6486 23.4235 13.6696 24.1752 13.8048V13.8ZM17.1336 15.0576V16.2864H13.2384V27.3816H10.476V16.284H6.5712V15.084C6.56072 14.6709 6.57193 14.2575 6.6048 13.8456C6.6192 13.8264 9.0048 13.8168 11.8848 13.8216H17.1192L17.1336 15.0576Z" fill="#FDFAF3"/>
</svg>
