<svg width="21" height="20" viewBox="0 0 21 20" fill="none" xmlns="http://www.w3.org/2000/svg">
<path d="M0.92637 6.97443C0.92637 6.97443 0.435647 6.61924 1.02526 6.14554L2.39805 4.91444C2.39805 4.91444 2.79134 4.49958 3.20685 4.86126L15.8802 14.4792V19.0914C15.8802 19.0914 15.8739 19.8157 14.9469 19.736L0.92637 6.97443Z" fill="#2489CA"/>
<path d="M4.19348 9.94698L0.92637 12.9239C0.92637 12.9239 0.590791 13.174 0.92637 13.6218L2.44312 15.0042C2.44312 15.0042 2.80334 15.3924 3.33605 14.951L6.79867 12.3186L4.19348 9.94698Z" fill="#1070B3"/>
<path d="M9.92831 9.97162L15.919 5.38619L15.8802 0.798815C15.8802 0.798815 15.6244 -0.202409 14.7709 0.319116L6.79867 7.59177L9.92831 9.97162Z" fill="#0877B9"/>
<path d="M14.9467 19.7417C15.2945 20.0988 15.7163 19.9816 15.7163 19.9816L20.3847 17.676C20.9825 17.2675 20.8988 16.7608 20.8988 16.7608V2.98997C20.8988 2.38447 20.2808 2.1755 20.2808 2.1755L16.2343 0.220226C15.3503 -0.327562 14.7709 0.319116 14.7709 0.319116C14.7709 0.319116 15.5155 -0.21862 15.8802 0.798977V19.0073C15.8802 19.1326 15.8536 19.2553 15.8004 19.3662C15.6941 19.5821 15.4623 19.7828 14.9082 19.6987L14.9467 19.7417Z" fill="#3C99D4"/>
</svg>
